<?xml version="1.0" standalone="no"?>
<!DOCTYPE svg PUBLIC "-//W3C//DTD SVG 20010904//EN"
 "http://www.w3.org/TR/2001/REC-SVG-20010904/DTD/svg10.dtd">
<svg version="1.0" xmlns="http://www.w3.org/2000/svg"
 width="2048.000000pt" height="2048.000000pt" viewBox="0 0 2048.000000 2048.000000"
 preserveAspectRatio="xMidYMid meet">
<metadata>
Created by potrace 1.14, written by Peter Selinger 2001-2017
</metadata>
<g transform="translate(0.000000,2048.000000) scale(0.100000,-0.100000)"
fill="#000000" stroke="none">
<path d="M0 10240 l0 -10240 3113 2 3112 3 -1 25 c-5 106 -46 287 -95 415 -31
83 -43 129 -47 187 -5 89 4 151 21 145 7 -2 31 -31 55 -65 24 -35 51 -62 61
-62 21 0 48 -31 53 -60 5 -34 20 -25 36 22 14 42 38 78 52 78 4 0 24 -16 44
-36 l37 -36 -4 -89 c-2 -49 2 -135 9 -192 8 -56 16 -150 18 -209 2 -58 7 -111
11 -117 7 -12 1779 -16 1809 -5 9 3 16 12 16 20 0 8 5 14 11 14 5 0 8 4 5 9
-3 5 0 11 7 14 19 7 42 -6 45 -28 2 -11 6 -22 9 -25 2 -3 279 -6 614 -8 l609
-3 0 117 c0 100 3 119 20 141 l19 25 19 -32 c11 -17 25 -66 31 -108 6 -42 14
-92 17 -109 l5 -33 5384 0 5385 0 0 10240 0 10240 -10240 0 -10240 0 0 -10240z
m9590 7733 c-8 -3 -24 -10 -35 -15 -20 -9 -20 -9 -1 6 11 9 27 16 35 15 14 0
14 -1 1 -6z m-926 -50 c168 -23 389 -96 547 -181 53 -29 122 -61 154 -72 31
-11 69 -31 83 -45 14 -15 36 -25 53 -25 15 0 34 -3 43 -6 14 -5 14 -9 1 -34
-22 -42 -19 -48 28 -55 61 -10 130 -42 121 -56 -4 -8 -3 -9 4 -5 6 4 29 -3 51
-16 31 -18 43 -20 52 -11 9 9 6 21 -11 50 -32 52 -51 74 -61 67 -5 -3 -6 1 -3
9 7 20 -76 108 -148 155 -39 25 -145 72 -273 120 -209 79 -275 107 -275 119 0
10 139 -6 270 -33 194 -39 351 -90 522 -170 138 -63 206 -102 419 -235 45 -29
99 -79 85 -79 -5 0 -3 -6 4 -14 6 -8 17 -13 24 -10 7 3 21 -6 32 -18 19 -23
19 -23 -1 -8 -19 14 -19 14 -6 -3 11 -14 17 -15 28 -5 11 9 13 8 11 -3 -2 -8
3 -13 12 -11 12 3 12 1 3 -9 -10 -10 -9 -17 5 -32 16 -19 16 -20 -10 -13 -16
3 -28 3 -29 -1 0 -5 -2 -16 -4 -26 -2 -9 4 -23 13 -30 10 -6 17 -19 17 -26 0
-8 19 -29 42 -47 23 -18 39 -35 35 -40 -4 -4 -2 -4 4 -1 6 4 34 -5 63 -18 50
-25 114 -36 81 -15 -8 5 -11 10 -6 10 11 0 -25 29 -36 30 -4 0 -5 -7 -2 -15 4
-8 1 -15 -4 -15 -6 0 -9 12 -6 26 4 20 1 25 -10 21 -8 -3 -20 2 -28 11 -12 15
-11 16 5 3 27 -21 20 -7 -10 20 -14 13 -23 18 -19 12 10 -19 1 -16 -15 4 -10
11 -10 14 -1 9 8 -5 11 -1 9 15 -2 14 -12 24 -26 26 -16 2 -20 -1 -15 -9 4 -7
-2 -5 -13 5 -21 19 -38 23 -28 7 9 -15 -11 -12 -24 3 -16 20 -3 27 26 16 18
-7 22 -6 16 4 -13 21 -12 39 2 33 17 -6 42 21 56 62 6 18 15 29 20 26 5 -3 6
2 3 10 -3 9 5 21 20 31 25 17 28 16 81 -9 37 -19 80 -54 135 -113 73 -79 99
-116 68 -97 -9 5 -9 2 1 -9 16 -20 26 -23 15 -4 -5 8 -2 8 9 -2 20 -16 23 -36
5 -25 -8 4 -10 3 -5 -2 5 -5 14 -9 20 -9 7 0 11 -8 11 -18 -1 -9 2 -15 6 -12
4 3 22 -17 39 -43 33 -52 38 -67 19 -56 -8 4 -10 3 -5 -2 5 -5 14 -9 19 -9 6
0 13 -6 16 -14 3 -8 0 -11 -6 -7 -6 3 -13 2 -16 -3 -3 -4 4 -8 15 -7 18 1 36
-26 100 -147 43 -82 88 -161 99 -177 23 -32 26 -44 8 -34 -8 4 -10 3 -5 -2 5
-5 14 -9 19 -9 6 0 13 -6 16 -14 3 -9 0 -11 -8 -6 -9 5 -11 4 -6 -4 4 -6 11
-9 16 -6 4 3 15 -5 23 -18 8 -13 50 -44 93 -69 44 -26 121 -85 172 -132 111
-102 136 -118 227 -146 39 -12 109 -40 156 -61 93 -42 222 -79 276 -79 80 0
150 61 209 183 44 92 176 257 296 372 108 103 153 136 258 193 100 54 152 69
186 54 14 -7 23 -16 20 -21 -6 -9 22 -38 33 -34 3 1 6 -11 6 -27 0 -17 2 -29
5 -27 25 15 90 40 153 58 69 21 83 22 139 11 35 -6 149 -17 253 -22 105 -6
212 -16 240 -22 27 -6 112 -37 187 -69 131 -55 161 -66 256 -89 47 -12 126
-75 115 -93 -3 -5 -1 -7 4 -4 6 4 34 -27 62 -68 29 -41 93 -121 143 -177 109
-123 140 -163 69 -90 -28 29 -51 50 -51 46 0 -4 -11 3 -25 16 -13 12 -22 26
-20 30 6 10 -105 146 -116 143 -5 -2 -7 3 -5 10 1 6 1 9 -1 4 -3 -4 -9 -5 -14
-1 -15 9 -10 -3 7 -21 16 -15 16 -18 -2 -33 -17 -16 -17 -16 -3 3 13 18 13 19
-3 7 -10 -8 -15 -22 -12 -38 3 -17 1 -23 -6 -19 -7 4 -9 -2 -4 -19 3 -15 2
-26 -4 -26 -5 0 -15 -13 -22 -30 -7 -16 -19 -30 -26 -30 -8 0 -14 -4 -14 -8 0
-4 -13 -16 -30 -25 -16 -10 -29 -23 -27 -30 1 -6 -9 -13 -22 -15 -13 -2 -39
-12 -58 -23 -18 -10 -40 -19 -49 -19 -8 0 -29 -7 -47 -16 -21 -12 -58 -17
-114 -17 -46 -1 -83 -4 -83 -9 0 -4 -5 -8 -11 -8 -5 0 -7 6 -3 13 4 6 -8 -4
-25 -23 -18 -19 -30 -30 -27 -23 4 7 -1 9 -14 6 -17 -5 -18 -8 -8 -21 11 -13
10 -14 -12 -9 -21 5 -26 3 -26 -13 0 -11 3 -20 6 -20 3 0 16 -10 30 -21 l25
-21 -30 17 c-16 10 -36 24 -42 33 -7 9 -13 13 -13 9 0 -4 -16 2 -36 13 -62 35
-84 52 -79 60 3 4 -1 7 -8 7 -6 -1 -34 10 -62 23 -27 13 -71 25 -97 28 -45 4
-50 2 -85 -35 -76 -79 -138 -162 -155 -205 -9 -23 -17 -35 -17 -26 -1 23 -17
31 -38 20 -22 -13 -82 6 -61 19 8 5 1 7 -19 4 -31 -3 -32 -2 -20 18 14 25 17
78 4 70 -5 -3 -7 3 -5 13 2 11 -2 18 -9 17 -6 -1 -17 4 -23 12 -12 15 -3 21
23 16 5 -1 6 3 2 8 -3 6 -13 7 -23 4 -36 -14 10 26 89 77 84 54 213 112 225
101 4 -3 4 0 0 7 -5 8 2 16 19 22 32 12 48 51 35 86 -13 33 -13 47 0 39 16
-10 11 1 -7 16 -14 12 -16 12 -9 -1 8 -16 -28 23 -49 54 -13 18 -15 18 -48 -3
-19 -11 -37 -17 -41 -13 -4 4 -6 3 -5 -3 4 -12 -23 -55 -34 -55 -4 0 -5 6 -1
13 4 6 -7 -1 -24 -17 -18 -17 -32 -27 -32 -23 0 8 -134 -47 -179 -74 -19 -11
-40 -18 -47 -15 -9 3 -11 -3 -8 -22 3 -19 2 -23 -5 -13 -10 16 -35 5 -25 -11
4 -7 2 -8 -5 -4 -6 4 -24 0 -39 -10 -15 -10 -29 -19 -32 -19 -3 0 -19 -10 -37
-23 -17 -12 -35 -22 -41 -22 -20 0 -35 -29 -23 -44 11 -13 6 -21 -26 -40 -10
-6 -11 -1 -3 20 6 15 9 28 7 30 -10 10 -191 -148 -234 -204 -14 -20 -21 -32
-15 -28 13 8 16 -5 5 -20 -5 -5 2 2 14 15 12 14 21 27 20 30 -1 3 1 6 4 6 14
0 38 28 32 39 -3 6 -3 8 2 4 4 -4 22 9 39 29 41 48 99 103 103 99 2 -2 -17
-25 -43 -52 -87 -91 -164 -184 -164 -198 0 -21 -90 -107 -108 -104 -20 3 -42
-9 -42 -23 0 -5 5 -9 11 -9 5 0 8 4 5 8 -2 4 4 8 15 9 16 2 15 -2 -9 -24 l-27
-25 28 17 c16 9 31 15 33 12 3 -2 -11 -14 -31 -26 -20 -11 -33 -17 -30 -11 3
5 1 10 -5 10 -6 0 -8 5 -5 10 11 18 -1 11 -21 -12 -15 -19 -16 -20 -1 -9 19
15 23 1 5 -17 -10 -10 -10 -15 0 -21 11 -7 10 -10 -3 -14 -9 -4 -14 -3 -11 1
2 4 1 14 -4 22 -8 12 -14 10 -36 -11 -19 -20 -23 -29 -13 -34 7 -5 10 -4 6 1
-3 5 3 10 13 10 11 0 18 -1 17 -1 -1 -1 -24 -21 -52 -45 -45 -40 -47 -41 -16
-7 19 20 30 37 23 37 -12 0 -62 -61 -62 -77 0 -6 -7 -13 -15 -17 -8 -3 -15
-11 -15 -18 0 -10 2 -10 9 0 5 9 8 4 7 -16 -1 -17 -4 -28 -7 -26 -3 2 -12 -14
-19 -36 -12 -38 -90 -164 -90 -147 0 5 9 22 20 37 16 22 17 30 8 36 -7 4 -10
4 -6 -1 4 -4 -1 -20 -11 -34 -30 -43 -35 -55 -23 -47 7 4 12 2 12 -4 0 -6 4
-8 10 -5 6 3 7 -1 4 -9 -3 -9 -10 -16 -16 -16 -5 0 -6 6 -2 13 6 9 4 9 -8 -1
-13 -10 -17 -10 -22 0 -3 7 -3 3 -1 -9 3 -12 1 -24 -5 -28 -7 -5 -5 -12 7 -21
17 -14 17 -15 -3 -9 -17 4 -24 -1 -34 -25 -10 -23 -15 -28 -22 -18 -5 8 -7 4
-3 -12 7 -30 -17 -71 -30 -50 -5 9 -4 11 3 6 7 -4 12 -4 12 1 0 4 -11 13 -25
20 -25 11 -25 11 5 -30 29 -39 39 -77 22 -77 -10 0 -54 47 -71 75 l-13 20 8
-20 c3 -11 6 -27 6 -37 0 -9 7 -23 16 -31 17 -15 21 -17 42 -17 6 0 10 -7 10
-16 0 -8 -4 -13 -9 -10 -5 3 -12 -1 -15 -10 -4 -10 -2 -13 6 -8 8 5 9 1 4 -12
-4 -10 -11 -37 -15 -60 -7 -39 -41 -102 -41 -77 0 7 5 15 10 18 8 5 7 12 -2
23 -11 13 -10 15 5 9 13 -5 17 -1 17 18 0 15 -5 23 -12 20 -7 -3 -18 6 -25 20
-6 14 -7 22 -2 19 6 -3 8 6 5 20 -3 14 0 26 6 26 5 0 7 -7 4 -16 -3 -8 -2 -13
3 -9 5 3 8 -6 6 -20 -1 -16 3 -25 11 -25 16 0 19 16 4 25 -5 3 -7 12 -4 19 3
8 -4 20 -15 28 -12 8 -18 17 -15 21 3 3 1 15 -6 26 -8 16 -15 19 -29 12 -14
-8 -17 -6 -17 12 1 15 -6 23 -21 25 -14 2 -21 -2 -19 -11 2 -17 36 -52 49 -52
6 0 11 -7 13 -15 1 -8 5 -24 9 -35 4 -11 -2 -6 -13 10 -10 17 -31 40 -46 52
-14 13 -26 30 -26 38 0 8 -4 15 -10 15 -5 0 -9 18 -8 40 1 21 5 37 9 35 9 -6
5 22 -5 32 -4 4 -11 8 -14 8 -4 1 -18 7 -31 14 -13 7 -21 8 -17 3 3 -6 2 -14
-4 -17 -6 -4 -10 -3 -9 2 5 30 -31 72 -86 99 -27 14 -28 14 -11 -1 11 -8 15
-15 10 -15 -14 0 -56 45 -48 52 3 3 0 9 -7 14 -7 4 -10 3 -5 -4 3 -6 2 -13 -4
-17 -5 -3 -10 1 -10 9 0 9 -9 21 -20 28 -11 7 -20 19 -20 26 0 8 -5 10 -12 6
-7 -5 -9 -2 -5 9 4 11 2 14 -8 11 -8 -3 -20 -1 -27 5 -7 7 -22 19 -33 27 -11
9 -14 12 -7 9 11 -6 11 -3 1 14 -10 15 -16 17 -22 8 -6 -8 -7 -6 -3 6 3 10 6
26 6 35 0 13 3 13 16 -4 8 -10 13 -14 10 -7 -4 6 0 14 6 16 8 4 7 6 -3 6 -18
1 -34 45 -24 62 4 5 1 8 -6 7 -8 -2 -18 15 -25 42 -7 25 -13 46 -14 48 -2 1
-3 8 -4 15 -1 6 -7 11 -14 10 -7 -2 -12 9 -12 28 l0 31 40 -51 c45 -56 51 -74
18 -45 -13 11 -10 5 6 -13 16 -18 33 -30 37 -28 4 3 17 -7 28 -21 12 -15 21
-21 21 -15 0 7 5 9 13 5 7 -4 9 -3 4 2 -5 5 -14 9 -20 9 -7 0 -12 7 -12 15 -1
8 -6 14 -13 13 -11 -3 -29 22 -31 42 -1 6 -6 10 -13 10 -6 0 -13 6 -16 14 -3
9 0 11 9 6 8 -5 11 -4 6 1 -5 5 -14 9 -20 9 -7 0 -13 9 -16 20 -3 18 -2 18 15
5 18 -14 18 -14 0 7 -10 12 -23 21 -30 20 -6 -1 -11 10 -11 25 0 15 -8 35 -17
45 -22 21 -24 5 -3 -24 8 -12 11 -24 7 -27 -5 -3 -16 12 -25 34 -8 22 -11 38
-6 35 12 -8 11 2 -2 26 -5 11 -14 17 -18 14 -5 -2 -8 3 -7 13 0 9 -5 16 -12
14 -10 -2 -11 4 -7 19 5 14 3 19 -3 15 -6 -3 -13 -2 -17 4 -3 5 -1 10 5 10 6
0 8 5 5 10 -4 6 -10 8 -15 5 -5 -3 -12 0 -16 6 -4 8 -3 9 4 5 14 -8 15 -5 6
19 -5 12 -9 13 -14 5 -11 -19 -92 150 -94 196 -1 22 -8 48 -14 59 -12 19 -13
18 -7 -5 4 -14 -12 12 -35 57 -23 45 -61 104 -83 130 -23 27 -34 42 -24 34 25
-19 21 -8 -5 15 -12 10 -18 13 -13 5 5 -9 3 -12 -6 -9 -8 3 -14 10 -14 15 0 6
-4 15 -9 20 -5 5 -6 3 -2 -4 4 -7 3 -13 -2 -13 -14 0 -33 26 -25 34 4 4 0 4
-8 1 -11 -4 -30 12 -62 51 -46 55 -60 83 -34 68 8 -5 8 -2 -2 9 -16 20 -25 22
-16 5 4 -7 -7 3 -24 22 -32 35 -41 57 -18 44 6 -4 -8 14 -33 40 -24 25 -46 46
-49 46 -3 0 13 -19 34 -42 l40 -41 -48 39 c-27 21 -54 37 -60 36 -7 -2 -9 0
-4 4 10 10 -23 45 -36 37 -6 -3 -7 -1 -3 6 10 15 -13 43 -27 34 -6 -4 -7 -1
-2 6 5 9 19 2 48 -26 23 -21 36 -31 29 -22 -6 9 -8 20 -4 24 4 5 2 5 -4 2 -6
-4 -21 5 -34 18 -13 13 -26 22 -31 20 -4 -3 -10 -1 -14 5 -3 5 -1 10 5 10 6 0
8 5 5 10 -4 6 -10 8 -15 5 -4 -3 -14 3 -21 12 -12 14 -12 16 1 8 13 -8 13 -7
1 8 -15 18 -26 23 -16 7 3 -5 2 -10 -3 -10 -12 0 -34 25 -27 31 4 5 -7 7 -59
12 -13 1 -24 6 -23 11 1 4 -29 19 -68 33 -62 21 -75 23 -107 12 -21 -7 -38
-15 -38 -18 0 -3 17 -21 37 -39 l38 -33 -45 31 c-42 29 -45 30 -58 13 -15 -21
-8 -82 19 -162 22 -64 23 -78 3 -36 l-15 30 6 -29 c6 -26 4 -28 -10 -16 -13
11 -15 10 -9 -3 4 -12 0 -16 -18 -15 -12 1 -27 5 -33 9 -5 4 -26 10 -45 14
-19 4 -41 12 -47 17 -7 6 -24 8 -38 6 -14 -3 -28 -2 -30 2 -3 4 -22 11 -42 15
-21 4 -43 11 -50 17 -7 5 -16 7 -21 4 -10 -6 -40 3 -167 50 -11 4 -24 8 -30 8
-24 3 -89 27 -130 49 -13 7 -20 6 -23 -1 -4 -12 -33 -4 -44 12 -3 5 -15 11
-25 12 -10 2 -37 7 -61 12 -26 6 -45 6 -48 0 -3 -5 -13 -3 -22 4 -9 7 -13 8
-9 2 4 -7 0 -17 -8 -24 -12 -10 -15 -9 -15 5 0 16 -2 16 -24 2 -22 -15 -25
-15 -37 -1 -11 14 -13 14 -21 0 -5 -9 -14 -16 -21 -16 -7 0 -6 4 3 10 12 7 12
10 1 10 -8 0 -11 6 -6 18 5 14 4 15 -6 5 -7 -7 -20 -13 -28 -13 -11 0 -12 3
-4 8 8 5 1 13 -20 26 l-32 18 19 -21 c11 -12 14 -21 8 -21 -7 0 -12 -5 -12
-11 0 -5 6 -7 13 -3 6 4 9 4 5 0 -3 -4 -10 -7 -15 -5 -12 3 -93 121 -93 135 0
7 17 27 38 44 l37 32 -32 -16 c-18 -9 -49 -30 -68 -48 -29 -25 -38 -28 -48
-18 -9 10 -9 11 1 6 6 -4 12 -2 12 4 0 7 -9 14 -20 17 -11 3 -20 12 -20 19 0
8 9 23 20 34 l20 20 -21 0 c-11 0 -43 -10 -70 -21 -54 -24 -60 -39 -34 -89 9
-17 20 -41 25 -54 12 -32 0 -30 -125 23 -94 41 -148 51 -160 30 -4 -6 -14 -8
-23 -4 -9 3 -13 3 -9 -1 10 -10 -13 -35 -26 -27 -5 3 -7 1 -4 -4 4 -6 0 -16
-7 -22 -11 -9 -16 -9 -22 0 -4 8 -3 9 4 5 17 -10 15 -1 -8 36 -21 34 -28 32
-10 -3 6 -10 8 -19 5 -19 -11 0 -66 133 -61 147 3 7 0 12 -6 10 -6 -1 -13 4
-16 12 -3 9 0 11 9 6 8 -5 10 -4 6 0 -17 19 -63 15 -116 -9 -82 -36 -127 -42
-135 -19 -3 10 -9 25 -12 33 -3 8 2 7 10 -4 9 -11 16 -15 16 -9 0 7 -5 15 -10
18 -6 4 -8 10 -6 14 3 4 -1 8 -9 8 -8 0 -12 -3 -10 -7 2 -4 -15 -6 -38 -6 -39
1 -42 -1 -42 -26 -1 -19 5 -30 18 -34 10 -3 16 -8 13 -11 -2 -3 -36 12 -76 32
-39 21 -69 40 -67 42 2 2 24 -8 48 -22 24 -13 47 -25 52 -25 12 0 8 18 -9 35
-14 13 -14 18 -2 33 12 15 11 16 -4 4 -9 -8 -22 -11 -29 -7 -8 6 -7 10 2 16
11 7 10 9 -4 9 -11 0 -15 4 -11 12 4 6 3 8 -3 5 -6 -4 -24 0 -39 8 -40 21 -56
19 -133 -14 -71 -32 -181 -53 -130 -26 23 13 167 55 186 55 4 0 -3 7 -15 16
-12 8 -20 20 -17 25 9 14 2 12 -67 -21 -38 -18 -64 -26 -67 -19 -5 16 39 59
90 84 25 13 60 35 77 49 16 15 32 26 34 26 10 0 4 -36 -8 -51 -12 -13 -12 -16
1 -16 8 0 11 5 8 10 -3 6 5 2 19 -9 14 -10 23 -26 21 -34 -2 -8 3 -4 11 10 10
17 15 20 16 9 0 -17 -33 -52 -42 -44 -9 10 -69 24 -63 16 5 -9 63 -25 82 -22
7 1 17 -7 23 -18 10 -19 12 -19 80 15 77 38 92 57 87 111 -3 27 -9 37 -23 38
-10 1 -39 9 -64 18 -25 8 -54 17 -64 19 -19 3 -34 48 -16 48 5 0 22 18 36 40
39 59 28 65 -114 63 -160 -2 -179 -7 -389 -99 -59 -25 -71 -24 -20 2 20 11 27
19 18 22 -11 4 -11 6 0 13 25 16 -9 10 -42 -6 -17 -10 -27 -20 -23 -27 5 -7 2
-9 -8 -6 -8 4 -15 0 -16 -8 -1 -8 -3 -21 -4 -29 -1 -8 -13 -25 -27 -37 l-26
-23 19 23 c11 12 15 22 10 22 -11 0 -37 -38 -40 -59 -4 -21 -56 -71 -67 -64
-6 3 -7 1 -3 -5 8 -13 -36 -45 -67 -49 -20 -3 -20 -2 2 21 13 14 29 24 35 23
6 -1 10 4 8 11 -1 7 4 23 13 35 35 50 0 50 -103 -2 -152 -76 -290 -169 -413
-276 -25 -22 -14 -9 25 29 152 146 284 252 415 333 322 199 565 289 911 337
256 36 358 38 564 9z m866 23 c0 -3 -15 -14 -32 -26 l-33 -22 30 26 c31 27 35
29 35 22z m-509 -94 c-7 -2 -18 1 -23 6 -8 8 -4 9 13 5 13 -4 18 -8 10 -11z
m54 -12 c13 -6 15 -9 5 -9 -8 0 -22 4 -30 9 -18 12 -2 12 25 0z m84 -26 c10
-9 -35 -3 -49 6 -11 8 -7 9 15 4 17 -4 32 -8 34 -10z m86 -27 c28 -13 57 -22
65 -20 13 4 13 3 0 -6 -8 -5 -17 -8 -20 -7 -8 5 -93 43 -110 49 -13 5 -13 5 0
6 8 0 38 -10 65 -22z m5545 19 c0 -2 -7 -7 -16 -10 -8 -3 -12 -2 -9 4 6 10 25
14 25 6z m-60 -30 c0 -2 -8 -10 -17 -17 -16 -13 -17 -12 -4 4 13 16 21 21 21
13z m-5255 -106 c10 -11 16 -20 13 -20 -3 0 -13 9 -23 20 -10 11 -16 20 -13
20 3 0 13 -9 23 -20z m-1520 -70 c-3 -5 -11 -10 -16 -10 -6 0 -7 5 -4 10 3 6
11 10 16 10 6 0 7 -4 4 -10z m-305 -85 c0 -2 -10 -9 -22 -15 -22 -11 -22 -10
-4 4 21 17 26 19 26 11z m-50 -29 c0 -2 -8 -10 -17 -17 -16 -13 -17 -12 -4 4
13 16 21 21 21 13z m90 -121 c0 -2 -22 -16 -50 -30 -27 -14 -50 -23 -50 -20 0
2 21 16 48 29 53 28 52 28 52 21z m5200 -15 c-8 -5 -19 -10 -25 -10 -5 0 -3 5
5 10 8 5 20 10 25 10 6 0 3 -5 -5 -10z m-2440 -30 c0 -5 -2 -10 -4 -10 -3 0
-8 5 -11 10 -3 6 -1 10 4 10 6 0 11 -4 11 -10z m40 -109 c0 -6 -5 -13 -10 -16
-6 -4 -7 -12 -3 -18 4 -7 -1 -6 -10 2 -13 10 -15 17 -6 27 13 16 29 18 29 5z
m36 -57 c1 -9 0 -13 -4 -10 -3 4 -7 14 -8 22 -1 9 0 13 4 10 3 -4 7 -14 8 -22z
m-3826 3 c0 -2 -15 -16 -32 -33 l-33 -29 29 33 c28 30 36 37 36 29z m-60 -71
c0 -2 -8 -10 -17 -17 -16 -13 -17 -12 -4 4 13 16 21 21 21 13z m2140 -53 c0
-8 -38 17 -51 33 -9 11 -2 9 19 -6 17 -13 32 -25 32 -27z m1550 17 c-18 -12
-40 -13 -40 -2 0 4 12 9 28 10 21 1 23 0 12 -8z m108 -83 c17 -18 20 -27 11
-32 -7 -5 -10 -4 -5 3 3 6 -11 25 -31 42 -21 18 -29 28 -18 22 11 -6 30 -21
43 -35z m-1200 -38 c34 -15 62 -30 62 -33 0 -2 -29 8 -65 25 -72 33 -79 34
-69 17 5 -9 2 -9 -9 1 -9 7 -17 14 -17 16 0 9 46 -3 98 -26z m1283 -36 c13
-16 12 -17 -3 -4 -10 7 -18 15 -18 17 0 8 8 3 21 -13z m-100 -10 c13 -16 12
-17 -3 -4 -17 13 -22 21 -14 21 2 0 10 -8 17 -17z m170 -20 c13 -16 12 -17 -3
-4 -17 13 -22 21 -14 21 2 0 10 -8 17 -17z m2579 -3 c0 -5 -2 -10 -4 -10 -3 0
-8 5 -11 10 -3 6 -1 10 4 10 6 0 11 -4 11 -10z m-2670 -35 c13 -14 21 -25 18
-25 -2 0 -15 11 -28 25 -13 14 -21 25 -18 25 2 0 15 -11 28 -25z m51 -42 c13
-16 12 -17 -3 -4 -10 7 -18 15 -18 17 0 8 8 3 21 -13z m-3801 -3 c-14 -4 -34
-8 -45 -8 -16 0 -15 2 5 8 14 4 34 8 45 8 16 0 15 -2 -5 -8z m3519 -45 c0 -5
-6 1 -14 15 -8 14 -14 30 -14 35 0 6 6 -1 14 -15 8 -14 14 -29 14 -35z m-2951
16 c-20 -4 -49 -15 -65 -25 l-28 -17 28 25 c20 19 38 26 65 25 l37 -1 -37 -7z
m-118 -28 c-11 -15 -67 -51 -123 -81 -116 -62 -121 -55 -7 9 41 23 91 55 110
70 43 36 47 36 20 2z m225 -13 c10 -11 16 -20 13 -20 -3 0 -13 9 -23 20 -10
11 -16 20 -13 20 3 0 13 -9 23 -20z m552 14 c-3 -3 -12 -4 -19 -1 -8 3 -5 6 6
6 11 1 17 -2 13 -5z m-1017 -149 c-7 -8 -17 -15 -23 -15 -6 0 -2 7 9 15 25 19
30 19 14 0z m275 -57 l20 -22 -22 18 c-15 12 -39 18 -75 19 -40 0 -47 2 -28 8
37 11 82 1 105 -23z m1315 12 c0 -4 -10 -15 -22 -24 -20 -15 -21 -16 -3 -10
44 14 58 14 26 -1 -19 -8 -42 -21 -50 -28 -14 -11 -14 -10 -2 6 12 15 10 17
-20 18 -19 1 -45 5 -59 10 -18 6 -12 7 19 3 38 -5 43 -4 38 10 -6 14 -3 15 13
6 21 -11 44 -5 36 9 -3 4 1 8 9 8 8 0 15 -4 15 -7z m4960 -63 c0 -2 -12 -14
-27 -28 l-28 -24 24 28 c23 25 31 32 31 24z m-2500 -22 c11 -13 10 -14 -4 -9
-9 3 -16 10 -16 15 0 13 6 11 20 -6z m3935 -31 c-26 -20 -55 -36 -55 -30 0 5
63 46 70 46 3 -1 -4 -8 -15 -16z m-70 -44 c-3 -5 -16 -15 -28 -21 -19 -9 -19
-8 3 10 28 23 34 26 25 11z m-8115 -9 c0 -5 -14 -14 -31 -20 -42 -15 -47 -14
-24 3 11 8 23 12 27 10 4 -2 9 0 13 6 8 12 15 13 15 1z m6575 -25 c-40 -18
-92 -30 -82 -19 8 8 83 31 102 31 6 0 -3 -5 -20 -12z m-1495 -46 c0 -5 -2 -10
-4 -10 -3 0 -8 5 -11 10 -3 6 -1 10 4 10 6 0 11 -4 11 -10z m1324 -30 c-22
-22 -41 -35 -42 -30 -2 6 -8 8 -13 4 -17 -10 -9 5 13 25 11 11 24 18 28 16 4
-3 13 2 20 10 7 8 17 15 23 15 5 0 -8 -18 -29 -40z m-121 -45 c-10 -7 -21 -11
-26 -8 -4 2 -6 0 -5 -5 3 -9 -67 -71 -81 -73 -3 0 -14 -2 -23 -4 -11 -2 -16 3
-15 15 0 10 6 16 12 14 6 -3 20 4 30 16 22 24 40 26 31 4 -5 -14 -4 -15 9 -4
9 7 13 15 10 18 -9 9 17 32 37 32 10 0 16 4 13 10 -3 6 1 7 10 4 14 -6 14 -8
-2 -19z m67 -5 c8 -5 11 -10 5 -10 -5 0 -3 -5 5 -10 8 -5 10 -10 4 -10 -7 0
-14 -7 -18 -15 -3 -8 -2 -14 2 -14 29 5 34 -2 17 -21 -10 -11 -15 -23 -12 -26
4 -4 9 1 13 10 3 9 10 16 16 16 5 0 6 -5 2 -11 -3 -6 6 -3 22 7 l29 18 -24
-26 c-14 -16 -20 -32 -15 -40 4 -7 4 -10 -1 -6 -16 15 -50 -22 -50 -55 0 -17
-5 -32 -12 -32 -6 0 -15 -4 -20 -9 -5 -5 -3 -6 5 -2 16 10 16 8 -13 -52 -21
-44 -29 -52 -53 -52 -15 0 -34 -5 -42 -11 -11 -8 -5 -9 25 -5 43 6 34 2 -55
-25 -52 -16 -147 -105 -179 -167 -30 -58 -126 -137 -107 -87 5 13 2 14 -17 4
-12 -7 -25 -16 -28 -22 -4 -5 -36 -22 -72 -37 -36 -15 -80 -38 -99 -51 -27
-19 -30 -19 -17 -3 8 10 41 54 73 96 31 43 60 77 64 75 4 -1 18 6 32 16 28 19
20 23 -13 6 -14 -7 -9 1 13 22 19 19 43 45 52 59 47 67 66 99 62 103 -3 2 2
10 11 17 10 8 15 9 15 1 0 -6 -6 -11 -12 -12 -10 0 -10 -2 -1 -6 9 -3 6 -14
-11 -36 -33 -46 -39 -57 -27 -57 6 0 11 4 11 10 0 8 57 73 167 187 38 40 32
42 -21 6 -65 -43 -85 -64 -79 -82 4 -14 3 -14 -6 -1 -8 11 -4 21 17 43 33 36
112 83 131 79 7 -2 11 1 7 6 -3 5 22 28 54 51 33 23 60 46 60 50 0 5 8 12 17
15 13 5 11 0 -6 -18 -34 -37 -20 -32 20 6 19 17 28 28 20 24 -8 -5 -17 -3 -22
5 -13 21 -11 33 4 21 10 -8 13 -6 13 8 0 10 -5 16 -10 13 -9 -6 -1 12 17 35
11 14 17 15 37 2z m-6301 -14 c-2 -2 -15 -9 -29 -15 -24 -11 -24 -11 -6 3 16
13 49 24 35 12z m6352 -49 c-10 -9 -11 -8 -5 6 3 10 9 15 12 12 3 -3 0 -11 -7
-18z m-6878 -2 c-3 -9 -8 -14 -10 -11 -3 3 -2 9 2 15 9 16 15 13 8 -4z m8734
-62 c17 -13 34 -31 37 -40 5 -12 4 -13 -7 -5 -8 7 -17 8 -21 4 -4 -4 -6 0 -4
8 2 8 -2 14 -9 15 -7 0 -19 9 -27 20 -9 11 -16 16 -16 11 0 -11 -30 14 -30 26
0 11 33 -6 77 -39z m-2097 22 c0 -2 -10 -10 -22 -16 -21 -11 -22 -11 -9 4 13
16 31 23 31 12z m230 -53 c0 -5 -9 -17 -19 -26 -18 -16 -19 -16 -17 1 2 25 36
48 36 25z m-5730 -5 c0 -2 -10 -12 -22 -23 l-23 -19 19 23 c18 21 26 27 26 19z
m3244 -82 c-10 -8 -23 -15 -28 -15 -6 0 -1 7 10 15 10 8 23 15 28 15 6 0 1 -7
-10 -15z m-4816 -65 c45 -27 40 -34 -5 -8 -47 27 -49 28 -37 28 5 0 24 -9 42
-20z m7207 -139 c30 -7 30 -7 -12 -15 -24 -4 -43 -12 -43 -18 0 -6 -7 -8 -15
-4 -8 3 -15 0 -15 -7 0 -8 -4 -7 -10 3 -9 13 -11 13 -20 0 -7 -11 -10 -11 -10
-2 0 10 -5 10 -20 2 -15 -8 -20 -8 -20 1 0 8 -4 8 -15 -1 -8 -7 -12 -16 -9
-21 3 -5 0 -9 -5 -9 -25 0 1 45 37 64 28 16 105 19 157 7z m-7258 -67 c-3 -3
-12 -4 -19 -1 -8 3 -5 6 6 6 11 1 17 -2 13 -5z m6738 -4 c-3 -5 -16 -15 -28
-21 -19 -9 -19 -8 3 10 28 23 34 26 25 11z m-6776 -4 c-2 -2 -15 -9 -29 -15
-24 -11 -24 -11 -6 3 16 13 49 24 35 12z m7088 -38 c-3 -7 -5 -2 -5 12 0 14 2
19 5 13 2 -7 2 -19 0 -25z m-437 -2 c0 -2 -8 -10 -17 -17 -16 -13 -17 -12 -4
4 13 16 21 21 21 13z m-934 -133 c-4 -4 -46 92 -45 104 0 4 11 -16 25 -46 13
-30 23 -56 20 -58z m938 46 c-9 -10 -21 -16 -26 -13 -12 8 8 31 27 31 13 0 13
-3 -1 -18z m2765 -15 c25 -32 28 -52 4 -33 -11 10 -14 10 -9 2 10 -17 -2 -16
-20 1 -16 16 -19 56 -5 56 5 0 19 -12 30 -26z m-9014 -24 c-9 -15 -45 -32 -45
-22 0 5 10 14 23 20 29 14 29 14 22 2z m6190 -31 c2 -17 0 -18 -13 -5 -8 8
-11 19 -7 26 9 15 18 5 20 -21z m-6245 -1 c0 -6 -6 -5 -15 2 -8 7 -15 14 -15
16 0 2 7 1 15 -2 8 -4 15 -11 15 -16z m6255 -96 l-28 -27 24 31 c13 17 26 30
28 27 3 -2 -8 -16 -24 -31z m-45 5 c0 -2 -10 -12 -22 -23 l-23 -19 19 23 c18
21 26 27 26 19z m-66 -65 c3 -5 -1 -9 -9 -9 -8 0 -12 4 -9 9 3 4 7 8 9 8 2 0
6 -4 9 -8z m-5834 -16 c0 -2 -13 -6 -29 -8 -17 -2 -28 -1 -25 4 5 8 54 12 54
4z m5850 -11 c-7 -8 -17 -15 -23 -15 -6 0 -2 7 9 15 25 19 30 19 14 0z m-46
-17 c-5 -7 -9 -16 -9 -20 0 -3 -3 -9 -7 -13 -8 -8 -4 13 7 38 4 10 10 16 12
13 3 -3 1 -11 -3 -18z m106 18 c0 -2 -8 -10 -17 -17 -16 -13 -17 -12 -4 4 13
16 21 21 21 13z m-90 -53 c0 -5 -10 -19 -21 -33 l-21 -25 18 33 c18 32 24 38
24 25z m50 4 c0 -2 -12 -14 -27 -28 l-28 -24 24 28 c23 25 31 32 31 24z m-532
-43 c10 -8 7 -10 -10 -9 -15 1 -22 8 -20 18 2 12 -2 15 -15 11 -15 -5 -16 -4
-3 5 11 8 18 7 25 -2 6 -6 16 -17 23 -23z m424 -46 c-7 -7 -12 -8 -12 -2 0 14
12 26 19 19 2 -3 -1 -11 -7 -17z m-329 -14 c4 -1 10 -2 14 -3 12 -2 -16 -25
-32 -27 -13 -2 -14 0 -4 12 10 12 9 13 -5 8 -9 -3 -16 -2 -16 3 0 15 12 23 24
15 6 -4 14 -7 19 -8z m380 -29 c-3 -9 -8 -14 -10 -11 -3 3 -2 9 2 15 9 16 15
13 8 -4z m-380 -30 c-3 -9 -8 -14 -10 -11 -3 3 -2 9 2 15 9 16 15 13 8 -4z
m-84 -31 c12 -19 16 -32 11 -29 -11 7 -43 65 -36 65 2 0 13 -16 25 -36z m3568
16 c17 -10 36 -28 42 -38 11 -20 10 -20 -30 -1 -22 11 -49 17 -59 14 -22 -7
-49 30 -27 38 23 10 42 7 74 -13z m-9777 -41 c0 -5 -4 -7 -10 -4 -5 3 -10 1
-10 -4 0 -6 -5 -11 -11 -11 -8 0 -8 5 1 15 14 17 30 20 30 4z m6370 -9 c0 -5
-4 -10 -10 -10 -5 0 -10 5 -10 10 0 6 5 10 10 10 6 0 10 -4 10 -10z m100 -42
c0 -6 -7 -5 -15 2 -8 7 -15 17 -15 22 0 6 7 5 15 -2 8 -7 15 -17 15 -22z
m-6464 -6 c-4 -3 -14 2 -24 12 -16 18 -16 18 6 6 13 -6 21 -14 18 -18z m695
10 c-7 -2 -18 1 -23 6 -8 8 -4 9 13 5 13 -4 18 -8 10 -11z m5713 2 c3 -8 2
-12 -4 -9 -6 3 -10 10 -10 16 0 14 7 11 14 -7z m-6284 -9 c0 -1 -10 -10 -22
-21 -14 -12 -18 -13 -10 -3 6 9 10 18 7 21 -3 2 2 5 10 5 8 0 15 -1 15 -2z
m6201 -52 c13 -16 12 -17 -3 -4 -17 13 -22 21 -14 21 2 0 10 -8 17 -17z m53 1
c3 -8 2 -12 -4 -9 -6 3 -10 10 -10 16 0 14 7 11 14 -7z m2 -41 c23 -31 24 -34
5 -18 -22 19 -46 55 -38 55 3 0 17 -17 33 -37z m-6610 -98 c-18 -14 -22 -30
-4 -19 7 4 8 3 4 -4 -10 -17 5 -15 31 3 15 10 28 12 45 6 18 -6 27 -4 42 13
l18 21 -7 -24 c-5 -16 -4 -21 4 -17 19 12 12 0 -16 -25 -14 -13 -23 -18 -19
-11 4 6 3 12 -2 12 -14 0 -23 -28 -10 -32 6 -2 4 -9 -5 -16 -13 -11 -15 -9
-13 12 2 14 9 33 17 43 12 15 12 16 -3 10 -9 -3 -18 -1 -20 5 -6 16 -28 0 -28
-19 0 -9 6 -13 14 -10 10 4 13 1 10 -8 -5 -12 -10 -12 -31 2 -19 13 -27 14
-32 4 -11 -17 -29 7 -25 32 3 23 38 58 43 44 2 -6 -4 -16 -13 -22z m6633 -29
c-14 -15 -22 0 -13 26 7 22 7 22 14 3 4 -11 4 -24 -1 -29z m-6289 -32 c0 -2
-9 0 -20 6 -11 6 -20 13 -20 16 0 2 9 0 20 -6 11 -6 20 -13 20 -16z m6267 -10
c-3 -3 -12 -4 -19 -1 -8 3 -5 6 6 6 11 1 17 -2 13 -5z m50 0 c-3 -3 -12 -4
-19 -1 -8 3 -5 6 6 6 11 1 17 -2 13 -5z m-6717 -18 c0 -2 -7 -6 -15 -10 -8 -3
-15 -1 -15 4 0 6 7 10 15 10 8 0 15 -2 15 -4z m190 -2 c0 -8 -19 -13 -24 -6
-3 5 1 9 9 9 8 0 15 -2 15 -3z m-155 -14 c3 -5 -1 -10 -9 -10 -9 0 -16 -5 -16
-12 0 -6 -2 -9 -5 -6 -7 7 5 38 15 38 5 0 12 -4 15 -10z m-32 -70 c11 -13 10
-13 -5 -1 -10 7 -17 25 -17 40 l2 26 4 -25 c3 -14 10 -32 16 -40z m42 40 c3
-5 2 -10 -4 -10 -5 0 -13 5 -16 10 -3 6 -2 10 4 10 5 0 13 -4 16 -10z m1196
-277 c13 -16 12 -17 -3 -4 -10 7 -18 15 -18 17 0 8 8 3 21 -13z m8939 -170
c13 -13 12 -13 -10 -4 -14 5 -43 13 -64 16 -26 4 -35 9 -27 15 17 10 81 -7
101 -27z m-9786 -458 c3 -8 1 -15 -4 -15 -6 0 -10 7 -10 15 0 8 2 15 4 15 2 0
6 -7 10 -15z m3987 -72 c13 -16 12 -17 -3 -4 -10 7 -18 15 -18 17 0 8 8 3 21
-13z m-1819 -393 c6 0 4 7 -3 17 -8 10 -1 7 18 -6 19 -14 36 -20 45 -16 7 5
10 5 6 0 -4 -4 -2 -15 5 -24 9 -12 7 -11 -13 2 -27 19 -44 22 -35 7 12 -20 -6
-9 -45 26 -22 20 -40 41 -40 46 0 5 12 -4 26 -21 14 -17 30 -31 36 -31z m-89
-21 c34 -10 53 -18 42 -18 -11 0 -45 8 -75 19 -30 10 -58 16 -62 14 -3 -2 -10
1 -14 7 -4 8 -3 9 4 5 7 -4 12 -2 12 5 0 8 4 8 15 -1 9 -7 44 -21 78 -31z
m-2172 -6 c13 -16 12 -17 -3 -4 -17 13 -22 21 -14 21 2 0 10 -8 17 -17z m2474
-11 c-3 -3 -11 0 -18 7 -9 10 -8 11 6 5 10 -3 15 -9 12 -12z m80 -2 c-3 -5
-16 -15 -28 -21 -19 -9 -19 -8 3 10 28 23 34 26 25 11z m7280 -2 c-11 -6 -26
-19 -33 -27 -11 -13 -12 -13 -6 -1 13 28 26 40 43 40 13 -1 12 -3 -4 -12z
m-9804 -25 c13 -16 12 -17 -3 -4 -10 7 -18 15 -18 17 0 8 8 3 21 -13z m-23
-48 c-3 -3 -9 2 -12 12 -6 14 -5 15 5 6 7 -7 10 -15 7 -18z m52 -35 c0 -5 -2
-10 -4 -10 -3 0 -8 5 -11 10 -3 6 -1 10 4 10 6 0 11 -4 11 -10z m46 -73 c17 6
95 -70 91 -90 -1 -7 3 -11 9 -10 7 1 20 -8 30 -20 l19 -22 -22 19 c-15 12 -23
15 -23 7 0 -7 -12 2 -27 20 -16 18 -26 34 -23 35 7 3 -42 54 -52 54 -5 0 -1
-12 9 -27 10 -16 -4 -5 -29 22 -26 28 -47 54 -48 58 0 5 11 -5 25 -22 16 -18
32 -28 41 -24z m-15 26 c13 -16 12 -17 -3 -4 -10 7 -18 15 -18 17 0 8 8 3 21
-13z m80 -10 c13 -16 12 -17 -3 -4 -17 13 -22 21 -14 21 2 0 10 -8 17 -17z
m82 -78 c16 -16 33 -29 38 -27 11 3 12 -5 1 -12 -5 -3 -31 18 -58 46 -27 29
-40 45 -30 37 11 -7 33 -27 49 -44z m55 -80 c-3 -3 -9 2 -12 12 -6 14 -5 15 5
6 7 -7 10 -15 7 -18z m-46 -12 c-10 -4 -10 -8 -1 -19 8 -9 15 -11 18 -5 4 6
13 0 20 -12 13 -20 13 -21 -1 -9 -9 7 -18 9 -20 4 -1 -5 -13 3 -25 17 l-21 27
21 1 c12 0 16 -1 9 -4z m82 -28 l17 -30 -20 24 c-12 13 -21 28 -21 34 0 12 0
11 24 -28z m-23 -62 c13 -16 12 -17 -3 -4 -10 7 -18 15 -18 17 0 8 8 3 21 -13z
m67 -18 c-3 -3 -9 2 -12 12 -6 14 -5 15 5 6 7 -7 10 -15 7 -18z m35 -64 c2
-10 0 -25 -5 -32 -8 -11 -9 -11 -5 1 2 8 0 23 -5 33 -5 10 -5 17 0 17 6 0 12
-9 15 -19z m4752 -11 c-3 -5 -12 -10 -18 -10 -7 0 -6 4 3 10 19 12 23 12 15 0z
m2 -36 c-3 -3 -12 -4 -19 -1 -8 3 -5 6 6 6 11 1 17 -2 13 -5z m-70 -20 c-3 -3
-12 -4 -19 -1 -8 3 -5 6 6 6 11 1 17 -2 13 -5z m-4956 -51 c13 -16 12 -17 -3
-4 -17 13 -22 21 -14 21 2 0 10 -8 17 -17z m303 1 c3 -8 2 -12 -4 -9 -6 3 -10
10 -10 16 0 14 7 11 14 -7z m-104 -89 c13 -14 21 -25 18 -25 -2 0 -15 11 -28
25 -13 14 -21 25 -18 25 2 0 15 -11 28 -25z m4411 8 c13 -16 12 -17 -3 -4 -10
7 -18 15 -18 17 0 8 8 3 21 -13z m5142 -47 c18 -7 41 -24 52 -37 11 -13 13
-19 5 -13 -22 16 -134 37 -168 32 -21 -3 -29 -1 -25 8 9 25 87 31 136 10z
m-9383 -157 c15 -28 5 -23 -15 7 -9 15 -12 23 -6 20 6 -4 16 -16 21 -27z
m-287 -49 c-3 -12 -8 -19 -11 -16 -5 6 5 36 12 36 2 0 2 -9 -1 -20z m317 -65
c17 -25 35 -43 40 -40 5 3 12 0 16 -6 4 -7 3 -9 -4 -5 -5 3 -12 2 -14 -4 -1
-5 -20 15 -41 45 -21 30 -36 55 -33 55 3 0 19 -20 36 -45z m71 -32 c13 -16 12
-17 -3 -4 -17 13 -22 21 -14 21 2 0 10 -8 17 -17z m30 -50 c13 -16 12 -17 -3
-4 -10 7 -18 15 -18 17 0 8 8 3 21 -13z m-86 -3 c3 -6 -1 -7 -9 -4 -18 7 -21
14 -7 14 6 0 13 -4 16 -10z m56 -27 c13 -16 12 -17 -3 -4 -17 13 -22 21 -14
21 2 0 10 -8 17 -17z m-36 -24 c-3 -3 2 -12 10 -19 8 -7 15 -17 15 -22 0 -9
-14 3 -37 33 -10 13 -10 16 2 16 8 0 12 -4 10 -8z m91 -11 c3 -4 -1 -5 -10 -4
-8 1 -18 5 -22 8 -3 4 1 5 10 4 8 -1 18 -5 22 -8z m-145 -25 c13 -16 12 -17
-3 -4 -17 13 -22 21 -14 21 2 0 10 -8 17 -17z m119 -27 c0 -12 -5 -7 -19 24
-11 24 -11 24 3 6 9 -11 16 -24 16 -30z m79 14 c11 -24 11 -24 -3 -6 -9 11
-16 24 -16 30 0 12 5 7 19 -24z m-288 -37 c13 -16 12 -17 -3 -4 -17 13 -22 21
-14 21 2 0 10 -8 17 -17z m217 -18 c-3 -3 -9 2 -12 12 -6 14 -5 15 5 6 7 -7
10 -15 7 -18z m9053 -22 c13 -17 13 -17 -6 -3 -11 8 -22 16 -24 17 -2 2 0 3 6
3 6 0 17 -8 24 -17z m-8986 -53 c3 -5 1 -10 -4 -10 -6 0 -11 5 -11 10 0 6 2
10 4 10 3 0 8 -4 11 -10z m69 -6 c3 -8 2 -12 -4 -9 -6 3 -10 10 -10 16 0 14 7
11 14 -7z m106 -45 c12 -23 20 -43 18 -45 -3 -2 -14 17 -26 41 -27 56 -20 60
8 4z m-135 -11 c16 -24 22 -37 13 -31 -8 7 -18 10 -22 6 -4 -4 -4 1 0 11 6 15
4 17 -7 11 -8 -4 -11 -5 -7 0 4 4 3 16 -3 26 -18 34 -2 20 26 -23z m-50 12
c-3 -5 -12 -10 -18 -10 -7 0 -6 4 3 10 19 12 23 12 15 0z m-89 -68 c-3 -3 0
-12 6 -21 10 -13 10 -14 -2 -4 -16 15 -23 46 -8 37 5 -3 7 -9 4 -12z m119 -18
c9 -15 12 -23 6 -20 -11 7 -35 46 -28 46 3 0 12 -12 22 -26z m195 6 c6 -11 8
-20 6 -20 -3 0 -10 9 -16 20 -6 11 -8 20 -6 20 3 0 10 -9 16 -20z m-326 -36
c3 -8 2 -12 -4 -9 -6 3 -10 10 -10 16 0 14 7 11 14 -7z m356 -9 c7 -9 8 -15 2
-15 -5 0 -12 7 -16 15 -3 8 -4 15 -2 15 2 0 9 -7 16 -15z m-191 -9 c9 -11 9
-16 -1 -22 -7 -4 -10 -4 -6 1 4 4 3 14 -3 22 -6 7 -9 13 -6 13 2 0 10 -6 16
-14z m-96 -23 c13 -15 15 -21 5 -19 -24 3 -37 16 -31 32 3 8 6 14 7 12 1 -2 9
-13 19 -25z m51 1 c3 -8 2 -12 -4 -9 -6 3 -10 10 -10 16 0 14 7 11 14 -7z
m227 -41 c13 -16 12 -17 -3 -4 -17 13 -22 21 -14 21 2 0 10 -8 17 -17z m-231
-18 c13 -14 19 -25 13 -25 -6 0 -17 7 -24 16 -7 9 -22 20 -34 24 -20 9 -20 9
1 9 11 1 31 -10 44 -24z m-40 -22 c0 -7 -39 17 -46 28 -3 6 5 3 20 -6 14 -10
26 -19 26 -22z m245 17 c10 -11 16 -20 13 -20 -3 0 -13 9 -23 20 -10 11 -16
20 -13 20 3 0 13 -9 23 -20z m-115 4 c0 -8 -19 -13 -24 -6 -3 5 1 9 9 9 8 0
15 -2 15 -3z m44 -49 l17 -30 -20 24 c-12 13 -21 28 -21 34 0 12 0 11 24 -28z
m-114 -8 c8 -7 33 -33 55 -57 28 -31 19 -26 -30 20 -38 35 -72 66 -75 68 -3 3
4 0 15 -6 11 -7 27 -18 35 -25z m59 -23 c12 -19 16 -32 11 -29 -11 7 -43 65
-36 65 2 0 13 -16 25 -36z m46 -2 c1 -4 6 -18 13 -32 l13 -25 -18 24 c-17 23
-29 60 -15 46 4 -4 7 -10 7 -13z m169 -28 c3 -8 2 -12 -4 -9 -6 3 -10 10 -10
16 0 14 7 11 14 -7z m-123 -61 c13 -16 12 -17 -3 -4 -10 7 -18 15 -18 17 0 8
8 3 21 -13z m188 -67 c-3 -3 -11 5 -18 17 -13 21 -12 21 5 5 10 -10 16 -20 13
-22z m-150 -20 c-3 -3 -11 5 -18 17 -13 21 -12 21 5 5 10 -10 16 -20 13 -22z
m-210 -35 c-31 -10 -62 -21 -70 -26 -11 -6 -11 -5 -3 4 14 15 82 40 109 40 11
0 -5 -8 -36 -18z m8741 -76 c0 -1 -15 -2 -32 -2 -26 -1 -29 1 -13 7 17 6 45 3
45 -5z m-8525 -33 c-3 -3 -11 0 -18 7 -9 10 -8 11 6 5 10 -3 15 -9 12 -12z
m75 -78 c18 -26 29 -45 24 -42 -5 4 -25 28 -44 54 -18 26 -29 45 -24 42 5 -4
25 -28 44 -54z m-1847 29 c-7 -2 -19 -2 -25 0 -7 3 -2 5 12 5 14 0 19 -2 13
-5z m1897 -103 c6 -11 8 -20 6 -20 -3 0 -10 9 -16 20 -6 11 -8 20 -6 20 3 0
10 -9 16 -20z m-607 -17 c-7 -2 -19 -2 -25 0 -7 3 -2 5 12 5 14 0 19 -2 13 -5z
m152 -76 c15 -12 16 -15 4 -22 -8 -5 -10 -4 -6 0 4 5 -3 15 -15 22 -13 7 -18
12 -12 13 5 0 18 -6 29 -13z m563 -12 c-3 -3 -9 2 -12 12 -6 14 -5 15 5 6 7
-7 10 -15 7 -18z m-205 -9 c4 -10 1 -13 -8 -9 -8 3 -12 9 -9 14 7 12 11 11 17
-5z m298 -62 c9 -11 2 -9 -18 6 -18 13 -33 25 -33 27 0 8 38 -17 51 -33z
m-291 23 c0 -2 -12 -14 -27 -28 l-28 -24 24 28 c23 25 31 32 31 24z m221 -44
c13 -16 12 -17 -3 -4 -10 7 -18 15 -18 17 0 8 8 3 21 -13z m-601 -38 c-7 -8
-17 -15 -23 -15 -6 0 -2 7 9 15 25 19 30 19 14 0z m624 -1 c3 -8 2 -12 -4 -9
-6 3 -10 10 -10 16 0 14 7 11 14 -7z m-681 -21 c-7 -2 -19 -2 -25 0 -7 3 -2 5
12 5 14 0 19 -2 13 -5z m705 -28 c-3 -3 -9 2 -12 12 -6 14 -5 15 5 6 7 -7 10
-15 7 -18z m159 3 c-3 -8 -6 -5 -6 6 -1 11 2 17 5 13 3 -3 4 -12 1 -19z m-16
-25 c13 -16 12 -17 -3 -4 -10 7 -18 15 -18 17 0 8 8 3 21 -13z m7759 -7 c0 -2
-8 -10 -17 -17 -16 -13 -17 -12 -4 4 13 16 21 21 21 13z m-3505 -46 c-21 -22
-41 -38 -43 -35 -3 2 -13 -7 -24 -20 -20 -25 -51 -24 -41 2 4 11 8 12 13 3 10
-15 30 -4 30 16 0 9 7 14 18 12 12 -2 17 3 16 20 -1 12 3 22 7 22 5 0 9 -5 9
-12 0 -7 10 -2 22 10 12 12 25 22 27 22 3 0 -12 -18 -34 -40z m-4358 23 c-4
-3 -1 -13 6 -22 11 -14 10 -14 -5 -2 -16 12 -16 31 -1 31 4 0 3 -3 0 -7z m147
-24 c-3 -5 -10 -7 -15 -3 -5 3 -7 10 -3 15 3 5 10 7 15 3 5 -3 7 -10 3 -15z
m7656 -3 c0 -2 -19 -19 -42 -36 l-43 -32 40 36 c40 36 45 39 45 32z m-7640
-36 c6 -11 8 -20 6 -20 -3 0 -10 9 -16 20 -6 11 -8 20 -6 20 3 0 10 -9 16 -20z
m4050 16 c0 -2 -7 -7 -16 -10 -8 -3 -12 -2 -9 4 6 10 25 14 25 6z m-4175 -16
c-3 -5 -12 -10 -18 -10 -7 0 -6 4 3 10 19 12 23 12 15 0z m31 -74 l15 -31 -21
25 c-11 14 -26 34 -32 45 -10 18 -10 19 6 6 10 -8 24 -28 32 -45z m118 28 c3
-8 2 -12 -4 -9 -6 3 -10 10 -10 16 0 14 7 11 14 -7z m4126 -16 c0 -11 -22 -10
-40 2 -11 8 -9 9 13 8 15 -1 27 -6 27 -10z m-4650 -47 c13 -25 13 -31 0 -31
-5 0 -10 9 -10 19 0 11 -6 22 -12 24 -10 4 -10 6 -1 6 7 1 17 -8 23 -18z m724
-30 c-3 -3 -15 6 -27 18 l-22 24 27 -19 c14 -10 24 -21 22 -23z m7076 -6 c0
-2 -10 -9 -22 -15 -22 -11 -22 -10 -4 4 21 17 26 19 26 11z m-7196 -21 c3 -8
2 -12 -4 -9 -6 3 -10 10 -10 16 0 14 7 11 14 -7z m-2217 0 c-3 -3 -12 -4 -19
-1 -8 3 -5 6 6 6 11 1 17 -2 13 -5z m9473 -59 c-14 -8 -29 -14 -35 -14 -5 0 1
6 15 14 14 8 30 14 35 14 6 0 -1 -6 -15 -14z m-8665 -32 c17 -7 21 -10 10 -7
-11 4 -51 9 -90 12 -54 4 -63 7 -40 12 36 8 79 2 120 -17z m1392 -18 c0 -8 -4
-12 -9 -9 -4 3 -8 9 -8 15 0 5 4 9 8 9 5 0 9 -7 9 -15z m-166 -62 c13 -16 12
-17 -3 -4 -10 7 -18 15 -18 17 0 8 8 3 21 -13z m146 -8 c5 -4 3 -5 -4 -2 -6 4
-13 2 -15 -4 -2 -7 -8 -6 -16 3 -9 12 -8 14 8 13 11 -1 23 -5 27 -10z m-1314
-92 c-7 -2 -19 -2 -25 0 -7 3 -2 5 12 5 14 0 19 -2 13 -5z m1092 -11 c-3 -3
-11 0 -18 7 -9 10 -8 11 6 5 10 -3 15 -9 12 -12z m86 -49 c13 -16 12 -17 -3
-4 -10 7 -18 15 -18 17 0 8 8 3 21 -13z m303 -14 c-3 -5 -10 -7 -15 -3 -5 3
-7 10 -3 15 3 5 10 7 15 3 5 -3 7 -10 3 -15z m49 -29 c3 -11 1 -18 -4 -14 -5
3 -9 12 -9 20 0 20 7 17 13 -6z m-139 -32 c-9 -14 -23 2 -17 18 4 12 8 13 14
3 4 -7 5 -17 3 -21z m109 15 c-3 -7 -6 -13 -8 -13 -2 0 -5 6 -8 13 -3 8 1 14
8 14 7 0 11 -6 8 -14z m-127 -35 l29 -33 -32 29 c-31 28 -38 36 -30 36 2 0 16
-15 33 -32z m49 2 c-3 -5 3 -14 12 -20 17 -11 17 -11 1 -6 -10 3 -18 1 -18 -4
0 -5 8 -11 19 -15 10 -3 27 -15 37 -27 15 -16 10 -15 -21 6 -31 21 -40 34 -41
56 0 16 3 27 8 24 5 -3 6 -9 3 -14z m-114 -7 c13 -16 12 -17 -3 -4 -10 7 -18
15 -18 17 0 8 8 3 21 -13z m221 2 c3 0 9 -3 13 -7 4 -3 0 -5 -9 -4 -9 1 -22 8
-29 16 -10 10 -9 11 3 4 8 -5 18 -9 22 -9z m99 -62 c13 -16 12 -17 -3 -4 -10
7 -18 15 -18 17 0 8 8 3 21 -13z m-55 -25 c19 -23 19 -23 -2 -5 -11 9 -24 14
-29 10 -4 -5 -5 -2 -1 5 9 16 10 16 32 -10z m85 -45 c13 -16 12 -17 -3 -4 -10
7 -18 15 -18 17 0 8 8 3 21 -13z m6599 -7 c0 -2 -8 -10 -17 -17 -16 -13 -17
-12 -4 4 13 16 21 21 21 13z m-62 -49 c-29 -24 -98 -66 -86 -52 10 11 102 74
108 74 3 0 -7 -10 -22 -22z m-8 -81 c0 -2 -8 -10 -17 -17 -16 -13 -17 -12 -4
4 13 16 21 21 21 13z m-120 -10 c0 -2 -8 -10 -17 -17 -16 -13 -17 -12 -4 4 13
16 21 21 21 13z m-6519 -63 c13 -16 12 -17 -3 -4 -10 7 -18 15 -18 17 0 8 8 3
21 -13z m6549 2 c0 -7 -161 -87 -166 -82 -3 2 33 23 78 45 96 47 88 43 88 37z
m-6459 -42 c13 -16 12 -17 -3 -4 -10 7 -18 15 -18 17 0 8 8 3 21 -13z m-78
-10 c-7 -2 -19 -2 -25 0 -7 3 -2 5 12 5 14 0 19 -2 13 -5z m6357 -37 c0 -2 -7
-7 -16 -10 -8 -3 -12 -2 -9 4 6 10 25 14 25 6z m-6188 -169 c3 4 3 2 2 -5 -2
-7 6 -17 19 -22 12 -5 16 -9 8 -9 -17 -1 -61 38 -61 53 0 6 7 3 14 -7 8 -10
16 -14 18 -10z m5918 -41 c0 -2 -8 -10 -17 -17 -16 -13 -17 -12 -4 4 13 16 21
21 21 13z m-5702 -97 c34 -42 22 -36 -23 12 -22 23 -31 36 -20 29 11 -7 30
-25 43 -41z m-193 -39 c10 -11 16 -20 13 -20 -3 0 -13 9 -23 20 -10 11 -16 20
-13 20 3 0 13 -9 23 -20z m190 0 c10 -11 16 -20 13 -20 -3 0 -13 9 -23 20 -10
11 -16 20 -13 20 3 0 13 -9 23 -20z m-220 -10 c10 -11 16 -20 13 -20 -3 0 -13
9 -23 20 -10 11 -16 20 -13 20 3 0 13 -9 23 -20z m5690 -20 c-10 -11 -22 -20
-28 -20 -5 0 1 9 14 20 31 25 37 25 14 0z m-5625 -26 c0 -2 -9 0 -20 6 -11 6
-20 13 -20 16 0 2 9 0 20 -6 11 -6 20 -13 20 -16z m5530 13 c0 -2 -15 -16 -32
-33 l-33 -29 29 33 c28 30 36 37 36 29z m-5291 -45 c7 -13 6 -19 -2 -19 -7 0
-13 9 -13 19 0 10 1 18 3 18 1 0 7 -8 12 -18z m5445 6 c-13 -21 -200 -85 -213
-73 -2 2 8 7 23 11 14 3 26 10 26 15 0 5 7 5 17 2 11 -4 14 -3 9 5 -4 8 -2 10
8 6 8 -3 24 4 35 15 12 12 27 21 34 21 6 -1 1 -7 -13 -16 -23 -14 -24 -14 -2
-9 50 12 62 17 58 24 -3 4 1 8 9 8 8 0 12 -4 9 -9z m-5350 -147 c-8 -8 18 -31
29 -24 6 3 7 1 3 -5 -4 -6 10 -30 31 -53 50 -55 52 -78 4 -40 -21 17 -44 38
-52 48 -12 15 -10 15 9 -1 12 -11 25 -17 28 -14 3 3 -24 36 -60 72 -61 61 -81
86 -56 71 12 -7 13 7 3 21 -5 5 9 -9 29 -31 20 -22 35 -42 32 -44z m-175 15
c-3 -3 -11 5 -18 17 -13 21 -12 21 5 5 10 -10 16 -20 13 -22z m371 -6 c12 -16
19 -30 16 -30 -2 0 -14 14 -26 30 -12 17 -19 30 -16 30 2 0 14 -13 26 -30z
m5080 26 c0 -2 -8 -10 -17 -17 -16 -13 -17 -12 -4 4 13 16 21 21 21 13z m-54
-41 c-11 -8 -25 -15 -30 -15 -6 1 0 7 14 15 32 19 40 18 16 0z m49 5 c-7 -11
-99 -60 -112 -60 -4 0 19 16 52 34 71 40 68 38 60 26z m-5427 -25 c-3 -3 -9 2
-12 12 -6 14 -5 15 5 6 7 -7 10 -15 7 -18z m346 -13 c3 -5 -1 -9 -9 -9 -8 0
-12 4 -9 9 3 4 7 8 9 8 2 0 6 -4 9 -8z m-41 -114 c-4 -8 21 -12 41 -9 5 1 4
-4 -2 -12 -7 -8 -9 -18 -5 -23 4 -5 -9 6 -29 25 -21 19 -36 37 -33 39 2 3 -12
25 -32 51 -32 41 -30 40 14 -9 28 -30 49 -58 46 -62z m4708 94 c-5 -10 -18
-25 -28 -33 -12 -10 -11 -5 6 19 24 35 38 43 22 14z m-4865 -14 c4 -7 3 -8 -4
-4 -15 9 -16 -6 -2 -22 5 -7 3 -6 -6 2 -9 8 -13 19 -10 25 9 14 13 14 22 -1z
m240 -20 c16 -18 20 -26 10 -18 -18 14 -19 13 -13 -3 4 -11 3 -16 -4 -12 -5 4
-8 12 -6 18 2 7 -2 20 -11 30 -27 31 -7 18 24 -15z m4734 -12 c0 -2 -8 -10
-17 -17 -16 -13 -17 -12 -4 4 13 16 21 21 21 13z m-4965 -46 c-3 -4 6 -15 20
-24 14 -9 25 -22 25 -29 0 -6 -5 -4 -11 6 -6 9 -14 15 -19 12 -6 -4 -20 15
-24 35 -1 3 -5 12 -11 20 -8 13 -7 13 8 1 9 -7 15 -17 12 -21z m107 -34 c3 2
11 -2 17 -10 23 -27 -14 -12 -55 23 l-39 33 36 -25 c20 -15 39 -24 41 -21z
m174 -4 c-6 -5 -56 21 -56 29 0 5 13 0 29 -9 16 -9 28 -18 27 -20z m-93 -41
c-1 -2 5 -14 14 -25 18 -21 18 -21 -3 -3 -11 9 -23 15 -26 12 -3 -3 -11 2 -19
12 -9 11 -10 14 -1 9 19 -12 14 5 -10 33 -19 21 -17 21 13 -4 20 -17 34 -32
32 -34z m7 -60 c28 -23 45 -27 34 -8 -5 9 -3 9 7 -1 8 -7 14 -18 14 -25 0 -7
9 -11 18 -10 10 0 16 -2 13 -5 -7 -7 13 -32 26 -32 5 0 6 6 1 13 -10 16 -14
41 -5 32 4 -4 7 -12 7 -17 0 -6 6 -13 14 -16 8 -3 11 0 7 6 -3 6 -2 13 3 16 5
4 12 2 16 -4 3 -5 -3 -15 -14 -22 -16 -10 -18 -15 -8 -27 11 -15 -17 5 -163
111 -35 25 -67 45 -70 43 -4 -2 -7 2 -7 10 0 13 41 -11 107 -64z m-224 57 c3
-4 -1 -5 -10 -4 -8 1 -18 5 -22 8 -3 4 1 5 10 4 8 -1 18 -5 22 -8z m385 -5
c13 -16 12 -17 -3 -4 -10 7 -18 15 -18 17 0 8 8 3 21 -13z m-98 -31 c-12 -3
-10 -9 9 -30 20 -24 19 -24 -9 2 -18 16 -31 32 -28 34 3 3 -3 11 -13 19 -9 7
-1 5 20 -4 22 -11 30 -19 21 -21z m-194 -29 c2 -2 2 -5 -1 -8 -2 -3 -18 10
-34 28 l-29 32 30 -25 c17 -14 32 -26 34 -27z m-204 27 c3 -6 -1 -7 -9 -4 -18
7 -21 14 -7 14 6 0 13 -4 16 -10z m446 -27 c13 -17 13 -17 -6 -3 -11 8 -22 16
-24 17 -2 2 0 3 6 3 6 0 17 -8 24 -17z m-171 -28 c0 -5 -5 -3 -10 5 -5 8 -10
20 -10 25 0 6 5 3 10 -5 5 -8 10 -19 10 -25z m66 -16 c20 -22 23 -28 8 -19
-18 11 -50 50 -41 50 2 0 16 -14 33 -31z m275 4 c13 -16 12 -17 -3 -4 -10 7
-18 15 -18 17 0 8 8 3 21 -13z m90 -10 c13 -16 12 -17 -3 -4 -10 7 -18 15 -18
17 0 8 8 3 21 -13z m-410 -10 c13 -16 12 -17 -3 -4 -10 7 -18 15 -18 17 0 8 8
3 21 -13z m269 -58 c25 -27 33 -40 19 -27 -14 12 -29 19 -34 15 -4 -5 -5 -3
-1 4 6 11 -10 28 -26 28 -5 0 -8 3 -8 8 0 4 0 12 0 19 0 6 1 9 3 7 1 -2 22
-27 47 -54z m105 35 c10 -11 16 -20 13 -20 -3 0 -13 9 -23 20 -10 11 -16 20
-13 20 3 0 13 -9 23 -20z m-304 -17 c13 -16 12 -17 -3 -4 -10 7 -18 15 -18 17
0 8 8 3 21 -13z m4560 -16 c-10 -9 -11 -8 -5 6 3 10 9 15 12 12 3 -3 0 -11 -7
-18z m-4501 3 c8 -5 12 -11 10 -14 -3 -2 -14 2 -24 10 -22 15 -10 19 14 4z
m241 -7 c13 -16 12 -17 -3 -4 -10 7 -18 15 -18 17 0 8 8 3 21 -13z m-20 -30
c13 -16 12 -17 -3 -4 -10 7 -18 15 -18 17 0 8 8 3 21 -13z m-200 -20 c13 -16
12 -17 -3 -4 -10 7 -18 15 -18 17 0 8 8 3 21 -13z m190 -10 c13 -16 12 -17 -3
-4 -10 7 -18 15 -18 17 0 8 8 3 21 -13z m-196 -13 c10 -11 16 -20 13 -20 -3 0
-13 9 -23 20 -10 11 -16 20 -13 20 3 0 13 -9 23 -20z m246 -7 c13 -16 12 -17
-3 -4 -10 7 -18 15 -18 17 0 8 8 3 21 -13z m-180 -20 c13 -16 12 -17 -3 -4
-10 7 -18 15 -18 17 0 8 8 3 21 -13z m163 -4 c-3 -5 -10 -7 -15 -3 -5 3 -7 10
-3 15 3 5 10 7 15 3 5 -3 7 -10 3 -15z m-30 -41 c-3 -5 -12 -4 -20 3 -7 6 -11
15 -8 21 3 5 12 4 20 -3 7 -6 11 -15 8 -21z m-29 -18 c10 -11 16 -20 13 -20
-3 0 -13 9 -23 20 -10 11 -16 20 -13 20 3 0 13 -9 23 -20z m-69 -32 l29 -33
-32 29 c-31 28 -38 36 -30 36 2 0 16 -15 33 -32z m361 -31 c4 -21 3 -21 -11
-2 -8 11 -12 24 -9 28 7 12 16 0 20 -26z m-171 -69 l29 -33 -32 29 c-31 28
-38 36 -30 36 2 0 16 -15 33 -32z m-89 -8 c27 -21 48 -27 38 -10 -3 6 1 7 10
3 13 -5 14 -7 3 -14 -11 -7 -10 -9 1 -9 8 0 12 -3 9 -6 -4 -3 -17 0 -30 7 -30
15 -73 49 -63 49 4 0 18 -9 32 -20z m-235 -44 c7 4 8 3 4 -4 -11 -19 -21 -14
-45 21 l-22 32 25 -28 c15 -16 31 -25 38 -21z m364 -22 c18 -14 18 -14 -6 -3
-31 14 -36 19 -24 19 6 0 19 -7 30 -16z m43 -28 c9 -11 9 -16 -1 -22 -7 -4
-10 -4 -6 1 4 4 3 14 -3 22 -6 7 -9 13 -6 13 2 0 10 -6 16 -14z m-280 -10 c11
-14 6 -15 -27 -7 -4 1 8 21 12 21 2 0 9 -6 15 -14z m382 -43 c13 -16 12 -17
-3 -4 -10 7 -18 15 -18 17 0 8 8 3 21 -13z m-26 -33 c10 -11 16 -20 13 -20 -3
0 -13 9 -23 20 -10 11 -16 20 -13 20 3 0 13 -9 23 -20z m4005 -244 c0 -2 -8
-10 -17 -17 -16 -13 -17 -12 -4 4 13 16 21 21 21 13z m-53 -39 c0 -8 -6 -14
-14 -14 -9 0 -10 4 -2 14 6 7 12 13 14 13 1 0 2 -6 2 -13z m-3302 -98 c15 -18
16 -20 3 -10 -11 8 -18 9 -18 3 0 -6 5 -14 10 -17 6 -4 8 -16 5 -28 -5 -16 -4
-18 3 -8 8 11 13 7 26 -17 20 -38 20 -41 1 -38 -8 1 -27 20 -43 42 -37 51 -57
89 -43 80 6 -4 11 -1 11 8 0 19 -17 30 -22 14 -3 -7 -7 -5 -11 6 -5 11 -3 15
5 10 7 -5 9 0 5 15 -4 19 -2 18 21 -8 15 -15 36 -39 47 -52z m15 29 c15 -21
17 -28 6 -19 -16 13 -41 51 -33 51 2 0 14 -15 27 -32z m3769 18 c-8 -8 -194
-86 -204 -86 -12 0 25 19 120 59 64 28 95 37 84 27z m-4328 -53 c13 -16 12
-17 -3 -4 -10 7 -18 15 -18 17 0 8 8 3 21 -13z m-31 -53 c8 -5 11 -10 5 -10
-5 0 -17 5 -25 10 -8 5 -10 10 -5 10 6 0 17 -5 25 -10z m550 -50 c23 -27 40
-50 37 -50 -3 0 -24 23 -47 50 -23 28 -40 50 -37 50 3 0 24 -22 47 -50z m95
27 c0 -7 6 -12 14 -12 8 0 16 -7 18 -15 4 -13 3 -13 -7 0 -9 12 -10 9 -6 -15
l6 -30 -16 28 c-16 30 -28 75 -16 63 4 -4 7 -13 7 -19z m-592 6 c-7 -2 -19 -2
-25 0 -7 3 -2 5 12 5 14 0 19 -2 13 -5z m735 -18 c-3 -3 -9 2 -12 12 -6 14 -5
15 5 6 7 -7 10 -15 7 -18z m3582 -6 c-14 -6 -38 -17 -54 -25 -26 -13 -28 -13
-16 1 7 8 27 19 44 24 42 12 57 12 26 0z m-3729 -48 c6 -14 25 -41 42 -60 18
-19 26 -30 18 -26 -9 5 -12 3 -9 -6 3 -8 11 -13 17 -11 7 1 10 -2 7 -7 -3 -5
0 -14 8 -20 23 -19 11 31 -19 83 -15 25 -25 46 -22 46 8 0 72 -114 69 -122 -1
-4 2 -18 7 -30 5 -13 9 -27 9 -31 1 -4 10 -19 21 -34 12 -14 18 -29 15 -34 -3
-5 2 -16 10 -25 19 -18 21 -38 4 -28 -10 6 -10 5 -1 -7 21 -26 73 -128 73
-141 -1 -7 -10 4 -20 24 -11 20 -24 40 -30 43 -5 3 -1 -9 9 -27 38 -64 93
-195 71 -169 -11 13 -20 31 -20 41 0 10 -7 23 -15 30 -8 7 -15 16 -15 21 0 5
-18 45 -39 89 -22 44 -34 77 -28 73 7 -3 5 2 -4 13 -9 10 -22 36 -28 56 -7 21
-17 40 -22 44 -5 3 -16 22 -24 42 -9 20 -28 52 -43 71 -15 20 -27 39 -27 43 0
3 -4 10 -9 15 -5 5 -6 2 -1 -6 5 -10 4 -12 -4 -7 -6 4 -9 11 -6 16 2 4 -4 19
-15 33 -24 30 -25 34 -4 34 9 0 20 -12 25 -26z m-371 -16 c13 -14 21 -25 18
-25 -2 0 -15 11 -28 25 -13 14 -21 25 -18 25 2 0 15 -11 28 -25z m580 -10 c0
-5 -5 -3 -10 5 -5 8 -10 20 -10 25 0 6 5 3 10 -5 5 -8 10 -19 10 -25z m3420
16 c-11 -21 -30 -37 -30 -25 0 8 30 44 37 44 2 0 -1 -9 -7 -19z m-3719 -38
c13 -16 12 -17 -3 -4 -10 7 -18 15 -18 17 0 8 8 3 21 -13z m84 -24 c16 -19 13
-18 -17 5 -21 16 -38 30 -38 33 0 8 36 -16 55 -38z m203 16 c-3 -3 -9 2 -12
12 -6 14 -5 15 5 6 7 -7 10 -15 7 -18z m3376 -12 c-51 -46 -66 -54 -35 -20 19
20 39 37 45 37 5 0 1 -8 -10 -17z m-3614 -38 c13 -14 21 -25 18 -25 -2 0 -15
11 -28 25 -13 14 -21 25 -18 25 2 0 15 -11 28 -25z m215 -93 c0 -13 78 -172
82 -168 2 2 -9 36 -26 76 -35 81 -36 84 -20 74 8 -4 9 1 5 17 -3 13 8 -5 24
-40 17 -35 33 -61 37 -58 3 4 13 1 21 -6 13 -11 14 -9 1 10 -8 13 -16 18 -20
12 -4 -7 -9 -4 -12 6 -5 11 -3 14 5 9 8 -5 9 -2 5 9 -3 10 -5 17 -3 17 5 0 98
-150 100 -163 2 -6 15 -38 29 -71 15 -32 27 -60 27 -63 0 -2 16 -35 35 -74 41
-83 45 -100 10 -44 -13 22 -25 37 -25 32 0 -4 11 -25 24 -46 14 -21 22 -41 19
-45 -10 -9 17 -35 31 -30 8 3 16 -5 20 -22 6 -22 9 -25 17 -13 8 10 9 6 7 -18
-3 -19 0 -30 5 -26 6 4 8 -5 5 -20 -3 -15 -2 -24 2 -22 4 3 17 -32 28 -78 17
-66 20 -72 16 -32 -3 28 -15 86 -26 130 -11 44 -21 116 -23 160 -2 44 -1 67 2
51 2 -16 11 -39 19 -52 19 -28 42 -193 42 -294 0 -64 13 -130 25 -130 2 0 1
21 -3 48 -3 26 -2 61 2 77 l7 30 -1 -30 c0 -16 1 -43 2 -60 l2 -30 8 30 7 30
7 -38 c8 -37 25 -61 22 -30 0 9 5 18 12 20 6 3 12 0 12 -7 0 -6 -4 -9 -8 -6
-16 9 -13 -84 3 -115 9 -16 13 -34 10 -40 -4 -5 -1 -8 6 -7 6 2 14 -3 17 -11
3 -9 0 -11 -8 -6 -9 5 -11 4 -6 -4 4 -6 12 -9 17 -6 5 4 14 -4 19 -17 14 -31
39 -204 34 -231 -5 -22 -4 -22 5 0 10 23 8 100 -5 162 -5 25 -4 32 4 27 7 -4
12 -3 12 3 0 5 -4 11 -9 13 -5 2 -3 14 5 28 l14 25 -6 -30 c-4 -24 -3 -27 6
-15 10 12 11 12 4 -5 -4 -11 -7 -29 -6 -40 2 -57 11 -126 17 -134 3 -6 5 -52
4 -103 -3 -148 2 -242 12 -254 5 -7 10 -37 11 -68 1 -33 5 -51 10 -44 5 10 8
8 8 -4 0 -10 -4 -18 -10 -18 -5 0 -10 -5 -10 -11 0 -5 4 -8 9 -5 4 3 6 -6 3
-19 -2 -14 1 -32 8 -40 7 -8 8 -15 3 -15 -13 0 -15 -48 -1 -56 7 -4 8 -3 4 4
-4 7 -3 20 3 29 9 17 10 16 10 -2 0 -11 2 -72 5 -135 3 -63 5 -139 6 -169 0
-51 1 -53 18 -39 37 32 45 30 12 -3 -19 -20 -41 -44 -48 -55 -10 -15 -10 -13
1 11 8 19 10 52 7 90 l-6 60 -5 -75 c-11 -136 -17 -177 -29 -200 -7 -13 -13
-44 -14 -69 -3 -60 -26 -131 -42 -131 -7 0 -17 7 -22 16 -8 14 -10 12 -16 -11
-4 -15 -5 -30 -1 -33 3 -3 5 3 5 13 0 10 2 16 4 14 4 -4 -18 -205 -28 -248 -3
-13 -8 -54 -10 -93 -3 -38 -8 -73 -11 -79 -4 -5 -2 -9 2 -9 9 0 37 85 36 107
0 7 4 11 9 10 6 -1 13 4 16 12 3 8 0 11 -7 7 -7 -5 -8 -1 -4 10 4 11 8 13 11
6 2 -7 8 -12 13 -12 4 0 6 7 3 15 -4 8 -2 21 4 28 6 6 12 26 14 42 l3 30 6
-28 c4 -18 1 -33 -7 -42 -8 -7 -14 -16 -14 -19 0 -6 35 0 53 9 6 4 3 -1 -8 -9
-57 -45 -84 -80 -100 -131 -10 -33 -21 -52 -27 -48 -6 3 -8 1 -4 -5 5 -9 -7
-79 -22 -122 -8 -24 -9 -29 -11 -52 -1 -19 -3 -21 -12 -8 -9 12 -10 10 -6 -9
3 -13 1 -35 -5 -50 -6 -14 -12 -32 -14 -39 -1 -8 -5 -16 -8 -19 -3 -3 -1 -15
5 -26 7 -11 7 -17 1 -13 -5 3 -15 -1 -22 -9 -7 -8 -21 -15 -31 -15 -16 0 -49
-34 -49 -52 0 -14 61 15 71 34 9 17 13 18 20 7 5 -8 9 -18 9 -24 0 -5 -4 -4
-9 3 -6 10 -15 5 -36 -19 -15 -19 -23 -35 -16 -37 10 -3 -15 -37 -28 -37 -3 0
-12 -4 -18 -8 -17 -11 -16 2 2 37 14 27 14 28 -2 15 -17 -15 -17 -10 1 46 4
11 -3 2 -15 -20 -13 -22 -22 -45 -21 -52 2 -6 -2 -14 -8 -18 -6 -4 -9 3 -6 17
2 13 -1 28 -6 35 -6 7 -5 14 3 19 8 5 9 3 4 -6 -6 -9 -4 -11 4 -6 7 5 10 15 7
23 -3 8 -2 12 3 9 7 -5 22 15 25 34 1 3 11 19 24 35 14 20 20 23 15 10 l-6
-20 23 20 c22 19 67 108 73 143 2 9 9 27 15 40 7 12 10 22 8 22 -3 0 -2 10 3
23 5 13 12 55 15 93 4 38 9 89 12 114 4 33 3 41 -5 30 -6 -8 -11 -28 -11 -43
0 -16 -4 -26 -10 -22 -5 3 -10 -3 -10 -15 0 -12 -5 -31 -12 -43 -9 -19 -9 -20
3 -10 11 9 14 6 15 -15 1 -15 -1 -20 -4 -13 -4 12 -25 -49 -37 -109 -1 -8 -7
-14 -13 -13 -6 2 -9 -8 -6 -22 5 -26 -10 -42 -22 -24 -4 7 -3 9 3 6 7 -4 11 4
10 21 -2 55 3 103 11 99 4 -3 8 41 10 97 1 55 16 198 33 316 45 315 49 546 12
674 -3 11 -1 16 5 12 13 -8 9 21 -5 35 -13 13 -5 51 10 42 6 -4 7 -1 1 8 -5 8
-9 23 -10 34 -2 45 -16 155 -29 225 l-15 75 4 -65 c5 -73 7 -78 -39 110 -13
52 -26 104 -29 115 -4 11 1 5 9 -12 22 -48 26 -40 8 13 -11 34 -18 42 -25 33
-6 -10 -7 -7 -3 9 4 14 2 22 -6 22 -7 0 -10 3 -6 6 3 4 0 13 -8 20 -8 8 -11
22 -8 31 4 10 2 14 -4 10 -13 -8 -26 20 -16 35 3 7 1 8 -5 4 -17 -10 -24 34
-14 82 7 28 7 40 0 35 -7 -4 -9 11 -5 43 4 27 3 41 -1 30 -6 -13 -14 10 -30
79 -12 54 -20 100 -18 102 2 3 10 -22 17 -54 7 -32 16 -65 21 -73 7 -11 8 -10
4 5 -23 99 -37 177 -33 182 3 2 10 -15 15 -39 15 -65 51 -180 57 -187 4 -3 3
8 -1 24 -5 17 -9 42 -9 57 0 14 -4 24 -9 21 -5 -4 -6 5 -2 20 3 14 2 29 -4 32
-5 3 -10 11 -10 16 0 6 5 7 12 3 7 -4 8 -3 4 5 -4 6 -11 9 -16 6 -5 -3 -14 13
-20 35 -7 25 -15 38 -22 34 -6 -4 -8 -3 -5 3 3 5 -4 22 -16 37 -12 15 -39 66
-59 114 -28 64 -32 80 -17 62 17 -21 20 -22 14 -5 -4 15 -3 17 5 9 6 -6 12
-18 14 -25 1 -8 23 -57 48 -109 33 -67 47 -88 48 -70 1 23 2 23 11 6 9 -15 13
-16 21 -5 8 11 9 10 5 -3 -5 -14 47 -128 58 -128 2 0 -4 24 -14 53 -10 28 -17
62 -16 74 1 12 -2 20 -7 17 -4 -3 -8 4 -8 15 0 11 -4 22 -10 26 -5 3 -7 12 -4
19 3 7 -2 16 -10 19 -9 4 -16 11 -16 17 0 18 -81 120 -93 117 -7 -1 -11 4 -9
11 1 8 -2 11 -7 8 -5 -3 -15 2 -22 11 -12 14 -12 16 0 9 8 -5 12 -5 10 0 -10
23 -71 124 -76 124 -2 0 -2 -4 2 -9 3 -5 1 -13 -5 -16 -6 -4 -9 -3 -8 2 3 12
-33 106 -49 124 -7 9 -11 24 -7 33 7 17 -13 76 -26 76 -4 0 -11 7 -14 16 -5
14 -4 15 8 5 12 -10 14 -9 9 8 -3 12 -9 19 -13 16 -4 -3 -14 3 -21 12 -10 12
-10 14 -1 9 7 -4 12 -1 12 8 0 9 -4 16 -9 16 -5 0 -14 14 -20 32 -6 17 -19 40
-28 50 -16 18 -16 18 2 12 14 -6 16 -4 10 7 -5 8 -5 11 1 6 5 -5 9 -12 9 -15z
m173 -107 c-3 -3 -9 2 -12 12 -6 14 -5 15 5 6 7 -7 10 -15 7 -18z m208 -358
c-3 -12 -1 -39 3 -59 5 -21 5 -36 1 -33 -4 3 -11 21 -14 41 -4 19 -10 43 -13
52 -4 15 -3 15 6 2 9 -12 11 -11 11 8 0 13 -4 20 -10 17 -6 -4 -7 1 -3 11 6
15 7 15 15 -1 6 -9 7 -26 4 -38z m-257 4 c17 -23 18 -29 6 -27 -8 1 -21 8 -28
16 -9 10 -9 11 1 6 15 -9 16 6 0 22 -7 7 -9 12 -6 12 4 0 16 -13 27 -29z
m3046 -11 c-3 -5 -20 -19 -38 -30 l-32 -22 35 31 c35 32 46 38 35 21z m-2991
-16 c3 -8 2 -12 -4 -9 -6 3 -10 10 -10 16 0 14 7 11 14 -7z m1 -98 l17 -31
-20 24 c-11 14 -27 38 -37 55 l-17 31 20 -24 c11 -14 27 -38 37 -55z m28 49
c23 -32 17 -32 -13 0 -13 14 -19 25 -14 25 5 0 17 -12 27 -25z m137 4 c0 -6
-4 -7 -10 -4 -5 3 -10 11 -10 16 0 6 5 7 10 4 6 -3 10 -11 10 -16z m-45 -96
c44 -68 44 -75 0 -18 -21 28 -42 56 -48 63 -7 9 -6 11 4 7 8 -3 28 -27 44 -52z
m182 -110 c-3 -10 -5 -4 -5 12 0 17 2 24 5 18 2 -7 2 -21 0 -30z m-133 -1 c3
-5 -1 -9 -9 -9 -8 0 -12 4 -9 9 3 4 7 8 9 8 2 0 6 -4 9 -8z m2536 -7 c0 -2
-10 -9 -22 -15 -22 -11 -22 -10 -4 4 21 17 26 19 26 11z m-2663 -120 c0 -8 -4
-12 -9 -9 -5 3 -6 10 -3 15 9 13 12 11 12 -6z m2493 1 c0 -2 -8 -10 -17 -17
-16 -13 -17 -12 -4 4 13 16 21 21 21 13z m-217 -471 c4 -8 3 -16 -1 -19 -4 -3
-9 4 -9 15 -2 23 3 25 10 4z m-1776 -182 c-3 -10 -5 -2 -5 17 0 19 2 27 5 18
2 -10 2 -26 0 -35z m20 15 c-3 -7 -5 -2 -5 12 0 14 2 19 5 13 2 -7 2 -19 0
-25z m1576 -53 c-10 -13 -22 -25 -27 -25 -5 0 1 11 14 25 30 32 36 32 13 0z
m-1550 -88 c-3 -19 -1 -37 5 -40 11 -8 4 -55 -11 -64 -7 -4 -8 0 -3 12 9 25
-4 86 -17 78 -5 -3 -7 -1 -3 5 3 6 2 13 -4 17 -12 7 -4 25 12 25 5 0 7 -7 4
-16 -3 -8 -2 -12 4 -9 12 7 13 35 2 35 -4 0 -8 12 -9 28 -2 27 -2 27 12 -5 8
-19 11 -47 8 -66z m-256 -109 c-3 -7 -5 -2 -5 12 0 14 2 19 5 13 2 -7 2 -19 0
-25z m254 -40 c-3 -21 -6 -26 -9 -15 -3 17 3 47 11 47 2 0 1 -15 -2 -32z m210
-55 c-12 -20 -14 -14 -5 12 4 9 9 14 11 11 3 -2 0 -13 -6 -23z m-191 -15 c0
-36 -12 -31 -16 7 -1 14 2 25 7 25 5 0 9 -14 9 -32z m1379 13 c-7 -10 -21 -24
-33 -31 -22 -14 -136 -43 -143 -36 -2 2 27 11 66 21 44 11 77 25 92 41 27 29
33 31 18 5z m-1189 -56 c0 -19 -4 -35 -10 -35 -11 0 -13 30 -4 54 10 25 14 19
14 -19z m-113 -7 c-3 -7 -5 -2 -5 12 0 14 2 19 5 13 2 -7 2 -19 0 -25z m1100
-14 c-3 -3 -12 -4 -19 -1 -8 3 -5 6 6 6 11 1 17 -2 13 -5z m-1110 -36 c-3 -8
-6 -5 -6 6 -1 11 2 17 5 13 3 -3 4 -12 1 -19z m-312 -18 c3 -5 1 -10 -4 -10
-6 0 -11 5 -11 10 0 6 2 10 4 10 3 0 8 -4 11 -10z m266 -13 c-10 -9 -11 -8 -5
6 3 10 9 15 12 12 3 -3 0 -11 -7 -18z m163 7 c3 -8 2 -12 -4 -9 -6 3 -10 10
-10 16 0 14 7 11 14 -7z m-469 -32 c-11 -2 -26 -9 -33 -15 -7 -5 -15 -7 -18
-4 -9 8 49 36 61 29 5 -4 1 -8 -10 -10z m1355 14 c0 -2 -6 -9 -14 -15 -11 -9
-16 -9 -22 0 -4 7 -3 9 4 5 6 -3 13 -2 17 4 6 10 15 14 15 6z m-57 -43 c-6
-16 -5 -17 13 -3 15 11 16 11 7 0 -7 -8 -20 -15 -28 -16 -12 -2 -13 2 -5 17
13 24 22 25 13 2z m-826 -85 c-3 -8 -6 -5 -6 6 -1 11 2 17 5 13 3 -3 4 -12 1
-19z m791 -3 c-6 -14 -13 -23 -15 -21 -5 5 15 46 22 46 3 0 -1 -11 -7 -25z
m4115 -122 c-7 -2 -19 -2 -25 0 -7 3 -2 5 12 5 14 0 19 -2 13 -5z m-4177 -49
c-8 -21 -15 -34 -15 -28 -1 15 20 76 25 71 2 -2 -2 -21 -10 -43z m4104 32 c0
-2 -7 -7 -16 -10 -8 -3 -12 -2 -9 4 6 10 25 14 25 6z m-4747 -87 c-8 -8 -13
-7 -18 2 -5 8 -4 10 3 5 7 -4 12 -2 12 5 0 7 3 9 7 6 4 -4 2 -12 -4 -18z m257
17 c0 -3 -4 -8 -10 -11 -5 -3 -10 -1 -10 4 0 6 5 11 10 11 6 0 10 -2 10 -4z
m-1757 -43 c-7 -2 -21 -2 -30 0 -10 3 -4 5 12 5 17 0 24 -2 18 -5z m1164 -48
c0 -8 -4 -12 -9 -9 -5 3 -6 10 -3 15 9 13 12 11 12 -6z m924 -46 c-5 -13 -10
-19 -10 -12 -1 15 10 45 15 40 3 -2 0 -15 -5 -28z m6099 5 c-25 -14 -56 -35
-70 -47 -19 -17 -21 -18 -10 -3 17 22 99 76 114 76 6 0 -9 -12 -34 -26z
m-7015 -114 c-3 -5 -12 -10 -18 -10 -7 0 -6 4 3 10 19 12 23 12 15 0z m-71
-57 c-3 -21 -10 -56 -14 -78 -8 -35 -8 -32 -5 20 2 33 4 68 5 78 0 9 4 17 10
17 6 0 7 -15 4 -37z m203 15 c-3 -8 -6 -5 -6 6 -1 11 2 17 5 13 3 -3 4 -12 1
-19z m-18 -85 c1 -13 -3 -23 -9 -23 -5 0 -10 19 -9 43 0 32 2 37 9 22 5 -11 9
-30 9 -42z m598 -45 c-3 -8 -6 -5 -6 6 -1 11 2 17 5 13 3 -3 4 -12 1 -19z
m900 7 c-21 -8 -51 -24 -67 -35 -17 -12 -30 -19 -30 -15 0 11 95 65 114 64 14
0 8 -5 -17 -14z m2563 -3 c-14 -9 -65 -55 -115 -102 l-90 -85 75 80 c41 44 91
90 110 102 40 26 58 30 20 5z m-4273 -34 c-3 -8 -6 -5 -6 6 -1 11 2 17 5 13 3
-3 4 -12 1 -19z m190 -10 c-3 -7 -5 -2 -5 12 0 14 2 19 5 13 2 -7 2 -19 0 -25z
m307 -24 c3 -8 2 -12 -4 -9 -6 3 -10 10 -10 16 0 14 7 11 14 -7z m896 -39 c0
-2 -10 -9 -22 -15 -22 -11 -22 -10 -4 4 21 17 26 19 26 11z m-1620 -20 c0 -2
-10 -9 -22 -15 -22 -11 -22 -10 -4 4 21 17 26 19 26 11z m1570 -24 c0 -14 -6
-19 -20 -18 -11 1 -20 5 -20 10 0 5 7 7 15 3 8 -3 14 -2 14 2 -2 12 1 22 6 22
3 0 5 -9 5 -19z m-1280 -11 c13 -8 13 -10 -2 -10 -9 0 -20 5 -23 10 -8 13 5
13 25 0z m-325 -30 c4 -6 1 -9 -6 -8 -7 2 -17 -13 -23 -33 -9 -30 -13 -34 -23
-23 -16 16 -16 25 -2 22 6 -2 14 3 17 11 3 8 0 11 -7 7 -15 -9 -14 7 1 22 15
15 35 16 43 2z m6517 -35 c-24 -14 -58 -35 -75 -47 -24 -17 -29 -18 -17 -4 15
19 109 76 125 76 6 0 -9 -11 -33 -25z m-6632 -22 c-14 -9 -34 -23 -46 -32 -11
-9 -5 -1 15 17 19 17 39 32 45 32 6 0 -1 -7 -14 -17z m1635 7 c3 -5 -1 -10
-10 -10 -9 0 -13 5 -10 10 3 6 8 10 10 10 2 0 7 -4 10 -10z m-1244 -31 c-5
-13 -10 -19 -10 -12 -1 15 10 45 15 40 3 -2 0 -15 -5 -28z m160 -2 c-10 -9
-11 -8 -5 6 3 10 9 15 12 12 3 -3 0 -11 -7 -18z m3587 -18 c-26 -33 -30 -42
-18 -49 9 -5 20 -4 30 3 8 6 6 1 -5 -11 -17 -21 -21 -21 -31 -8 -9 14 -14 12
-35 -10 -13 -14 -42 -40 -64 -56 -24 -18 -17 -10 16 21 31 28 71 73 89 101 18
27 36 50 42 50 5 0 -6 -18 -24 -41z m-4162 -11 c-12 -16 -13 -25 -4 -35 8 -10
6 -19 -9 -36 -11 -12 -35 -39 -53 -59 -18 -21 -37 -35 -43 -31 -6 3 -7 1 -4
-4 4 -6 -1 -17 -10 -24 -15 -12 -16 -12 -10 4 4 10 7 22 7 27 0 4 9 10 21 13
12 3 18 10 14 17 -3 6 -3 10 2 9 20 -3 27 2 13 11 -11 7 -25 0 -54 -28 -22
-20 0 7 49 61 87 96 111 118 81 75z m594 19 c0 -2 -10 -12 -22 -23 l-23 -19
19 23 c18 21 26 27 26 19z m-503 -49 c-3 -7 -5 -2 -5 12 0 14 2 19 5 13 2 -7
2 -19 0 -25z m1503 28 c0 -2 -8 -10 -17 -17 -16 -13 -17 -12 -4 4 13 16 21 21
21 13z m2597 -12 c-3 -3 -12 -4 -19 -1 -8 3 -5 6 6 6 11 1 17 -2 13 -5z m-837
-14 c-8 -5 -19 -10 -25 -10 -5 0 -3 5 5 10 8 5 20 10 25 10 6 0 3 -5 -5 -10z
m-3249 -47 c-12 -20 -14 -14 -5 12 4 9 9 14 11 11 3 -2 0 -13 -6 -23z m503 12
c-4 -8 -1 -15 7 -15 7 0 10 -2 7 -5 -3 -3 -13 -3 -22 1 -13 5 -14 9 -5 20 15
18 20 18 13 -1z m-78 -21 c-10 -20 -12 -21 -17 -6 -8 21 -4 29 14 29 11 0 11
-5 3 -23z m-1586 6 c8 -5 11 -10 5 -10 -5 0 -17 5 -25 10 -8 5 -10 10 -5 10 6
0 17 -5 25 -10z m1562 -35 c3 -14 1 -28 -5 -32 -6 -3 -7 -1 -3 5 4 7 3 12 -2
12 -6 0 -8 9 -5 20 7 26 10 25 15 -5z m70 3 c-7 -7 -12 -8 -12 -2 0 14 12 26
19 19 2 -3 -1 -11 -7 -17z m-807 -8 c10 -11 16 -20 13 -20 -3 0 -13 9 -23 20
-10 11 -16 20 -13 20 3 0 13 -9 23 -20z m306 -3 c-10 -9 -11 -8 -5 6 3 10 9
15 12 12 3 -3 0 -11 -7 -18z m-28 -20 c3 -8 -1 -14 -8 -14 -7 0 -11 6 -8 14 3
7 6 13 8 13 2 0 5 -6 8 -13z m337 10 c0 -2 -10 -12 -22 -23 l-23 -19 19 23
c18 21 26 27 26 19z m103 -64 c-3 -7 -9 -11 -13 -8 -4 3 -11 -2 -14 -11 -3 -8
-10 -12 -16 -9 -5 3 -10 -3 -10 -15 0 -12 5 -18 10 -15 12 7 14 -68 3 -79 -5
-4 -9 -12 -9 -17 -1 -5 -3 -10 -4 -11 -3 -3 -11 -55 -13 -80 -1 -9 -4 -16 -7
-16 -18 2 -26 -4 -28 -22 -4 -42 -6 -49 -13 -45 -9 6 -21 -24 -13 -36 3 -5 0
-9 -6 -9 -6 0 -10 -6 -9 -12 2 -14 -4 -34 -27 -83 -7 -16 -14 -25 -14 -18 0 6
-3 20 -6 30 -5 15 -4 16 6 3 9 -12 11 -10 6 11 -3 15 1 34 10 47 8 12 12 27 8
33 -4 8 -12 3 -20 -12 -9 -17 -13 -19 -14 -8 0 19 24 42 33 32 4 -3 7 1 7 10
0 9 5 17 10 17 6 0 9 3 8 8 0 4 7 25 17 47 9 22 21 60 26 85 8 44 8 44 5 -13
-3 -71 10 -54 17 21 3 29 11 60 19 69 11 14 11 16 -2 8 -13 -7 -13 -6 -2 7 9
12 10 18 2 23 -7 4 -14 -2 -17 -15 -4 -14 -8 -18 -13 -10 -8 12 -24 -62 -21
-92 1 -10 -2 -18 -8 -18 -19 0 -21 18 -6 46 8 16 15 37 15 46 0 27 22 68 33
61 6 -3 7 -1 3 5 -4 7 5 27 20 46 21 26 30 31 39 22 7 -6 10 -17 8 -23z m-658
8 c-3 -6 1 -13 8 -18 10 -6 9 -12 -7 -27 -16 -16 -18 -16 -13 -3 3 9 2 19 -4
23 -6 4 -6 11 2 20 13 16 23 19 14 5z m407 -8 c-6 -2 -10 -9 -7 -13 3 -5 1
-11 -5 -15 -5 -3 -10 0 -10 8 0 17 10 27 24 26 6 0 5 -3 -2 -6z m2357 4 c-2
-1 -13 -9 -24 -17 -19 -14 -19 -14 -6 3 7 9 18 17 24 17 6 0 8 -1 6 -3z
m-2204 -16 c3 -5 2 -12 -3 -15 -5 -3 -9 1 -9 9 0 17 3 19 12 6z m2195 -14 c0
-2 -10 -12 -22 -23 l-23 -19 19 23 c18 21 26 27 26 19z m-2710 -11 c0 -2 -8
-10 -17 -17 -16 -13 -17 -12 -4 4 13 16 21 21 21 13z m-60 -41 c0 -5 -5 -3
-10 5 -8 12 -10 12 -10 1 0 -8 -2 -12 -5 -9 -3 3 -2 13 1 22 5 14 9 15 15 4 5
-7 9 -17 9 -23z m560 -9 c0 -7 -4 -6 -8 2 -6 9 -12 6 -20 -12 -6 -14 -7 -28
-2 -31 4 -3 11 1 13 7 4 10 6 10 6 0 1 -7 -6 -15 -14 -18 -8 -4 -15 -10 -15
-16 0 -5 6 -6 13 -2 7 5 6 0 -3 -11 -8 -10 -14 -21 -13 -24 0 -3 -3 -13 -8
-21 -4 -8 -9 -10 -9 -4 0 5 5 15 12 22 8 8 8 12 1 12 -6 0 -14 7 -17 16 -3 8
-2 12 4 9 6 -3 11 -3 11 2 1 4 3 17 4 28 2 11 6 29 11 39 6 15 4 17 -7 11 -11
-7 -12 -6 -2 7 7 8 9 19 5 24 -4 5 3 0 16 -10 12 -11 22 -24 22 -30z m-296 19
c-4 -8 -8 -15 -10 -15 -2 0 -4 7 -4 15 0 8 4 15 10 15 5 0 7 -7 4 -15z m2405
11 c-10 -9 -69 -36 -69 -32 0 7 52 35 64 36 5 0 7 -2 5 -4z m-2424 -78 c-3 -8
-12 -15 -19 -15 -10 0 -11 7 -2 29 8 21 12 24 18 14 4 -8 6 -21 3 -28z m265
38 c0 -2 -8 -10 -17 -17 -16 -13 -17 -12 -4 4 13 16 21 21 21 13z m3590 -29
c0 -2 -12 -14 -27 -28 l-28 -24 24 28 c23 25 31 32 31 24z m-3453 -70 c-8 -18
-18 -41 -21 -52 -3 -11 -4 -6 -2 10 2 17 7 39 11 49 7 15 5 17 -6 11 -11 -7
-12 -6 -2 7 7 8 9 19 5 23 -4 5 -1 5 6 1 7 -4 12 -2 13 6 1 7 3 5 6 -5 3 -10
-2 -33 -10 -50z m-337 28 c-7 -9 -15 -13 -18 -10 -3 3 -12 -1 -21 -8 -14 -11
-14 -10 -2 5 7 10 17 15 22 12 5 -3 12 2 15 11 4 9 9 14 12 11 3 -3 -1 -12 -8
-21z m181 -43 c-15 -28 -15 -53 0 -32 9 12 9 11 4 -5 -4 -11 -10 -31 -13 -45
-5 -22 -6 -23 -12 -5 -6 17 -7 16 -12 -7 -3 -17 -1 -25 5 -21 6 4 8 -3 4 -18
-4 -13 -7 -30 -7 -37 0 -7 -4 -11 -8 -8 -5 3 -9 -1 -9 -9 0 -8 4 -12 8 -10 10
7 -2 -36 -18 -61 -7 -11 -11 -24 -8 -27 3 -4 -2 -1 -11 7 -16 14 -11 41 6 31
5 -3 11 -1 15 4 3 6 -4 8 -15 6 -17 -3 -20 0 -16 23 2 15 5 27 6 27 7 0 6 36
-1 41 -16 9 -10 65 11 94 11 15 17 29 15 32 -3 3 2 5 9 5 12 0 13 -4 4 -21
-14 -26 -18 -60 -6 -48 5 5 10 16 12 23 1 8 7 24 14 36 7 12 12 26 11 30 -4
24 2 36 12 26 8 -8 8 -17 0 -31z m3544 28 c-3 -5 -12 -10 -18 -10 -7 0 -6 4 3
10 19 12 23 12 15 0z m-4450 -28 c-3 -3 -11 0 -18 7 -9 10 -8 11 6 5 10 -3 15
-9 12 -12z m402 -4 c-3 -8 -6 -5 -6 6 -1 11 2 17 5 13 3 -3 4 -12 1 -19z m679
-15 c-6 -21 -9 -24 -16 -13 -6 9 -5 17 3 22 7 4 8 8 4 8 -5 0 -5 5 -2 11 12
18 18 1 11 -28z m3303 33 c-2 -2 -22 -6 -44 -9 -28 -5 -34 -4 -20 3 19 8 73
14 64 6z m-4709 -51 c-50 -51 -63 -57 -47 -20 7 14 17 23 24 21 13 -5 38 20
26 26 -4 3 -3 3 4 2 7 -2 15 1 18 6 4 6 9 10 13 10 3 0 -14 -20 -38 -45z
m1011 21 c-6 -7 -9 -16 -6 -20 3 -3 0 -2 -5 2 -13 11 -2 44 12 36 5 -4 5 -11
-1 -18z m278 3 c1 8 4 12 7 9 3 -3 -8 -32 -25 -64 -16 -33 -30 -55 -31 -51 0
4 9 25 20 47 22 43 25 54 11 46 -5 -4 -7 4 -3 16 5 21 6 21 13 2 4 -11 8 -13
8 -5z m3451 6 c-7 -8 -17 -15 -22 -15 -11 0 14 29 26 30 5 0 3 -7 -4 -15z
m-120 2 c0 -2 -9 -12 -20 -22 -24 -21 -27 -14 -4 9 15 15 24 20 24 13z m-3060
-10 c0 -2 -10 -12 -22 -23 l-23 -19 19 23 c18 21 26 27 26 19z m-529 -40 c-14
-14 -14 -30 0 -21 7 4 10 1 7 -7 -3 -8 -11 -13 -17 -11 -7 1 -9 -2 -6 -8 4 -6
0 -19 -7 -28 -28 -32 -29 -40 -6 -34 12 3 17 7 10 10 -7 2 3 18 25 39 21 19
32 32 26 28 -17 -8 -16 -4 2 31 l15 29 -1 -30 c0 -17 1 -40 3 -53 2 -19 -6
-29 -40 -48 -52 -29 -68 -30 -75 -4 -3 13 -1 18 6 13 7 -4 8 0 4 11 -4 9 -3
14 2 11 10 -5 25 12 26 30 3 29 18 64 27 59 6 -4 6 -10 -1 -17z m3689 -2 c-13
-16 -110 -78 -110 -70 0 2 25 20 55 40 30 19 55 40 55 47 0 6 3 8 6 5 4 -4 1
-13 -6 -22z m-3747 4 c-6 -6 -10 -17 -9 -23 2 -6 1 -8 -1 -3 -3 4 -10 4 -16 0
-7 -3 -3 3 7 15 11 12 22 22 25 22 3 0 0 -5 -6 -11z m444 -11 c-3 -8 -6 -5 -6
6 -1 11 2 17 5 13 3 -3 4 -12 1 -19z m-274 0 c-15 -18 -27 -92 -14 -84 14 9
21 -8 9 -24 -8 -12 -8 -11 -3 5 4 13 3 16 -3 10 -6 -5 -12 -19 -15 -30 -3 -13
-6 -8 -7 15 l-3 35 -7 -40 -7 -40 -2 37 c-1 44 8 70 22 61 6 -3 7 -1 3 6 -7
11 18 61 30 61 4 0 2 -6 -3 -12z m212 -15 c-2 -10 -4 -22 -5 -28 0 -5 -5 -2
-11 9 -9 14 -8 20 2 27 18 11 18 12 14 -8z m-1345 3 c0 -2 -7 -9 -15 -16 -13
-11 -14 -10 -9 4 5 14 24 23 24 12z m1092 -18 c-7 -7 -12 -8 -12 -2 0 14 12
26 19 19 2 -3 -1 -11 -7 -17z m-162 -23 c-7 -8 -9 -15 -4 -15 11 0 -18 -20
-29 -20 -4 0 1 10 13 22 11 12 20 26 20 32 0 5 3 6 6 3 4 -4 1 -13 -6 -22z
m3007 19 c-3 -3 -12 -4 -19 -1 -8 3 -5 6 6 6 11 1 17 -2 13 -5z m588 -14 c-3
-5 -12 -10 -18 -10 -7 0 -6 4 3 10 19 12 23 12 15 0z m-4580 -10 c-3 -5 -16
-15 -28 -21 -21 -10 -21 -9 2 10 25 23 36 27 26 11z m4620 -40 c-16 -16 -32
-30 -37 -30 -8 0 53 59 61 60 3 0 -8 -13 -24 -30z m-3215 -15 c0 -5 -5 -3 -10
5 -8 12 -10 12 -10 1 0 -8 -2 -12 -5 -9 -3 3 -2 13 1 22 5 14 9 15 15 4 5 -7
9 -17 9 -23z m-433 9 c-3 -3 -12 -4 -19 -1 -8 3 -5 6 6 6 11 1 17 -2 13 -5z
m3603 -37 c0 -1 -24 -25 -52 -52 l-53 -50 50 53 c46 48 55 57 55 49z m1330
-41 c0 -2 -7 -7 -16 -10 -8 -3 -12 -2 -9 4 6 10 25 14 25 6z m20 -5 c0 -5 -19
-25 -43 -44 -27 -22 -44 -30 -44 -22 0 8 3 12 7 10 3 -2 22 11 41 30 38 38 39
39 39 26z m-4591 -24 c-2 -1 -13 -9 -24 -17 -19 -14 -19 -14 -6 3 7 9 18 17
24 17 6 0 8 -1 6 -3z m-72 -34 c0 -10 -4 -10 -16 -1 -9 7 -18 13 -20 15 -2 1
5 1 16 0 11 0 20 -7 20 -14z m27 2 c3 -8 1 -15 -4 -15 -6 0 -10 7 -10 15 0 8
2 15 4 15 2 0 6 -7 10 -15z m3176 1 c0 -2 -19 -19 -42 -36 l-43 -32 40 36 c40
36 45 39 45 32z m1346 -44 c-17 -16 -18 -16 -5 5 7 12 15 20 18 17 3 -2 -3
-12 -13 -22z m-26 -16 c0 -2 -8 -10 -17 -17 -16 -13 -17 -12 -4 4 13 16 21 21
21 13z m-1465 -16 c-3 -5 -12 -10 -18 -10 -7 0 -6 4 3 10 19 12 23 12 15 0z
m1925 -3 c0 -2 -10 -12 -22 -23 l-23 -19 19 23 c18 21 26 27 26 19z m-1780
-30 c0 -2 -10 -12 -22 -23 l-23 -19 19 23 c18 21 26 27 26 19z m1730 -10 c0
-2 -10 -12 -22 -23 l-23 -19 19 23 c18 21 26 27 26 19z m-6566 -25 c3 -5 -1
-9 -9 -9 -8 0 -12 4 -9 9 3 4 7 8 9 8 2 0 6 -4 9 -8z m4786 -5 c0 -2 -19 -21
-42 -42 l-43 -40 40 43 c36 39 45 47 45 39z m1235 -37 c-3 -5 -16 -15 -28 -21
-19 -9 -19 -8 3 10 28 23 34 26 25 11z m-1565 -20 c0 -5 -10 -10 -22 -10 -19
0 -20 2 -8 10 19 13 30 13 30 0z m120 -46 c-8 -8 -23 -20 -34 -25 -13 -7 -9
-1 9 15 34 29 43 33 25 10z m-6730 -19 c-14 -8 -29 -14 -35 -14 -5 0 1 6 15
14 14 8 30 14 35 14 6 0 -1 -6 -15 -14z m3080 -31 c0 -8 -19 -13 -24 -6 -3 5
1 9 9 9 8 0 15 -2 15 -3z m20 -8 c0 -2 -8 -10 -17 -17 -16 -13 -17 -12 -4 4
13 16 21 21 21 13z m3541 -53 c-11 -5 -11 -7 0 -15 11 -8 10 -9 -3 -5 -9 3
-22 -1 -28 -9 -14 -16 -36 -18 -45 -4 -4 6 1 7 11 3 11 -4 15 -3 10 5 -3 6 -1
14 5 18 8 4 9 3 5 -4 -11 -17 9 -15 24 3 7 8 18 15 24 14 6 0 5 -3 -3 -6z
m-6664 -9 c-3 -3 -12 -4 -19 -1 -8 3 -5 6 6 6 11 1 17 -2 13 -5z m6693 -18 c0
-2 -8 -10 -17 -17 -16 -13 -17 -12 -4 4 13 16 21 21 21 13z m-75 -35 c-9 -8
-36 -10 -30 -2 2 4 11 8 20 8 8 0 13 -3 10 -6z m-65 -135 c0 -2 -8 -10 -17
-17 -16 -13 -17 -12 -4 4 13 16 21 21 21 13z m-5753 -92 c-3 -3 -12 -4 -19 -1
-8 3 -5 6 6 6 11 1 17 -2 13 -5z m803 -28 c0 -2 -8 -10 -17 -17 -16 -13 -17
-12 -4 4 13 16 21 21 21 13z m44 -178 c-5 -8 -1 -9 12 -5 18 7 18 7 0 -8 -11
-8 -27 -15 -35 -14 -12 0 -10 3 4 9 17 7 16 9 -10 10 -30 2 -30 2 -5 10 36 12
42 11 34 -2z m-64 -12 c0 -2 -7 -7 -16 -10 -8 -3 -12 -2 -9 4 6 10 25 14 25 6z
m15 -16 c-3 -5 -12 -10 -18 -10 -7 0 -6 4 3 10 19 12 23 12 15 0z m-1905 -55
c0 -2 -10 -9 -22 -15 -22 -11 -22 -10 -4 4 21 17 26 19 26 11z m6737 -90 c0
-8 -4 -12 -9 -9 -5 3 -6 10 -3 15 9 13 12 11 12 -6z m-6807 -29 c0 -2 -8 -10
-17 -17 -16 -13 -17 -12 -4 4 13 16 21 21 21 13z m0 -100 c0 -2 -7 -7 -16 -10
-8 -3 -12 -2 -9 4 6 10 25 14 25 6z m27 -142 c-3 -3 -11 -6 -19 -8 -7 -1 -20
-6 -28 -11 -12 -7 -13 -6 -3 6 6 8 22 15 34 16 11 1 19 0 16 -3z m-872 -84
c-3 -5 -12 -10 -18 -10 -7 0 -6 4 3 10 19 12 23 12 15 0z m450 0 c-3 -5 -16
-15 -28 -21 -19 -9 -19 -8 3 10 28 23 34 26 25 11z m235 -15 c0 -3 -28 -19
-62 -36 -35 -17 -58 -26 -53 -20 9 9 104 61 113 61 1 0 2 -2 2 -5z m1120 -69
c0 -3 -15 -14 -32 -26 l-33 -22 30 26 c31 27 35 29 35 22z m-1270 -20 c0 -2
-8 -10 -17 -17 -16 -13 -17 -12 -4 4 13 16 21 21 21 13z"/>
<path d="M8070 17870 c-54 -5 -64 -7 -35 -9 22 -2 47 -3 56 -2 9 1 56 -5 105
-14 51 -9 107 -13 132 -9 37 6 42 4 42 -14 0 -11 -7 -23 -16 -26 -9 -4 -14 -9
-11 -12 3 -4 27 8 53 25 26 17 52 31 58 31 6 0 6 3 1 9 -30 28 -199 37 -385
21z"/>
<path d="M8288 17753 c-32 -8 -56 -19 -53 -23 3 -4 -3 -7 -13 -6 -9 0 -16 -4
-15 -11 2 -7 -4 -10 -12 -7 -31 12 -13 -8 20 -22 38 -16 79 -19 71 -5 -4 5 3
7 14 4 17 -5 20 0 20 31 0 21 4 35 9 32 5 -3 11 1 15 9 3 8 4 15 3 14 -1 -1
-28 -8 -59 -16z"/>
<path d="M8003 17648 c-20 -26 -26 -41 -14 -34 6 4 33 8 59 8 43 0 45 1 28 14
-24 17 -38 18 -55 2 -11 -11 -13 -10 -8 5 7 20 3 22 -10 5z"/>
<path d="M7190 17530 c-30 -16 -51 -29 -47 -30 16 0 107 43 107 51 0 11 6 13
-60 -21z"/>
<path d="M7872 17498 c-7 -7 -12 -19 -11 -27 0 -14 1 -14 6 -1 4 8 13 20 22
27 9 7 11 13 6 13 -6 0 -16 -5 -23 -12z"/>
<path d="M9114 17486 c-30 -14 -54 -36 -37 -36 4 0 35 11 68 25 50 20 55 25
30 24 -16 0 -44 -6 -61 -13z"/>
<path d="M7835 17440 c-16 -7 -17 -9 -3 -9 9 -1 20 4 23 9 7 11 7 11 -20 0z"/>
<path d="M7894 17435 c10 -8 23 -12 28 -9 13 8 5 14 -23 19 -23 4 -23 4 -5
-10z"/>
<path d="M9059 17403 c10 -4 -5 -15 -40 -30 l-54 -24 23 -19 c13 -10 23 -23
23 -27 0 -4 3 -10 6 -13 4 -3 3 1 -2 9 -5 9 -3 12 6 9 8 -3 13 -11 11 -17 -1
-7 2 -10 8 -6 8 5 87 -12 100 -22 3 -3 -6 -14 -20 -25 l-25 -20 35 20 c49 29
77 68 64 89 -9 15 -131 84 -144 82 -3 0 2 -3 9 -6z"/>
<path d="M8386 17385 c-22 -8 -44 -11 -49 -8 -6 3 -7 1 -3 -5 9 -15 40 -15
108 -1 126 26 128 27 53 28 -38 0 -88 -6 -109 -14z"/>
<path d="M10523 17337 c-16 -32 -23 -57 -17 -57 7 0 36 71 31 76 -2 2 -8 -6
-14 -19z"/>
<path d="M8421 17225 c0 -5 6 -21 14 -35 8 -14 14 -20 14 -15 0 6 -6 21 -14
35 -8 14 -14 21 -14 15z"/>
<path d="M8935 17199 c-4 -6 -4 -13 -1 -16 3 -4 6 -1 6 6 0 7 5 9 12 5 7 -4 8
-3 4 4 -9 15 -13 15 -21 1z"/>
<path d="M8545 17170 c-3 -6 1 -7 9 -4 18 7 21 14 7 14 -6 0 -13 -4 -16 -10z"/>
<path d="M8817 17120 c3 -10 12 -25 21 -32 13 -11 12 -8 -2 20 -19 36 -27 41
-19 12z"/>
<path d="M8780 17105 c-7 -9 -8 -15 -2 -15 5 0 12 7 16 15 3 8 4 15 2 15 -2 0
-9 -7 -16 -15z"/>
<path d="M9060 17090 c6 -10 16 -22 23 -26 9 -5 9 -4 0 7 -18 19 -16 29 5 22
9 -3 14 -3 11 1 -4 4 -16 8 -28 11 -18 3 -20 1 -11 -15z"/>
<path d="M8800 17086 c0 -2 7 -7 16 -10 8 -3 12 -2 9 4 -6 10 -25 14 -25 6z"/>
<path d="M10740 16986 c0 -2 8 -10 18 -17 15 -13 16 -12 3 4 -13 16 -21 21
-21 13z"/>
<path d="M10987 16963 c3 -7 6 -13 8 -13 2 0 5 6 8 13 3 8 -1 14 -8 14 -7 0
-11 -6 -8 -14z"/>
<path d="M11017 16946 c4 -13 3 -17 -5 -12 -6 4 -4 -6 6 -23 9 -16 19 -28 21
-26 2 3 10 -3 17 -13 12 -14 12 -12 1 14 -15 37 -50 89 -40 60z m21 -41 c-3
-3 -9 2 -12 12 -6 14 -5 15 5 6 7 -7 10 -15 7 -18z"/>
<path d="M10850 16886 c0 -2 8 -10 18 -17 15 -13 16 -12 3 4 -13 16 -21 21
-21 13z"/>
<path d="M12980 16839 c0 -5 5 -7 10 -4 6 3 10 8 10 11 0 2 -4 4 -10 4 -5 0
-10 -5 -10 -11z"/>
<path d="M12930 16809 c-11 -8 -12 -12 -2 -16 6 -2 10 -9 7 -13 -3 -5 0 -12 6
-16 9 -5 10 1 5 19 -4 19 -2 27 11 30 13 3 14 5 3 6 -8 0 -22 -4 -30 -10z"/>
<path d="M11115 16760 c9 -16 18 -30 21 -30 2 0 -2 14 -11 30 -9 17 -18 30
-21 30 -2 0 2 -13 11 -30z"/>
<path d="M12885 16774 c-84 -63 -288 -259 -319 -306 -10 -15 -20 -42 -22 -60
l-5 -33 28 30 c18 21 24 24 19 10 -18 -45 -20 -58 -5 -50 11 6 11 5 2 -5 -6
-7 -9 -19 -6 -28 5 -11 2 -13 -8 -8 -8 4 -5 1 5 -8 10 -8 22 -13 27 -11 4 3 5
-3 2 -14 -10 -38 15 -29 68 27 30 31 41 45 24 32 l-30 -25 24 27 c13 15 26 27
30 26 19 -2 31 3 27 11 -3 5 2 8 12 7 9 0 16 4 15 10 -1 7 5 11 15 10 9 0 16
5 14 12 -1 8 2 11 8 7 20 -12 127 96 114 116 -3 5 0 8 7 7 6 -2 14 3 17 11 3
10 0 11 -9 5 -12 -7 -12 -5 0 9 7 9 17 15 21 12 10 -6 31 19 34 41 2 10 10 18
19 20 13 2 87 52 87 59 0 1 -7 2 -15 2 -8 0 -11 -5 -8 -10 3 -5 0 -7 -8 -5 -8
3 -13 12 -13 20 1 10 -7 15 -24 14 -14 -1 -27 5 -30 13 -3 9 0 11 8 6 9 -6 11
-4 6 4 -5 7 -15 9 -25 6 -30 -12 -51 -14 -57 -4 -4 6 -12 5 -22 -3 -14 -10
-15 -10 -4 2 26 30 10 39 -23 14z m-250 -482 l-28 -27 24 31 c13 17 26 30 28
27 3 -2 -8 -16 -24 -31z"/>
<path d="M12970 16780 c-8 -5 -12 -12 -9 -15 4 -3 12 1 19 10 14 17 11 19 -10
5z"/>
<path d="M10810 16746 c0 -2 8 -10 18 -17 15 -13 16 -12 3 4 -13 16 -21 21
-21 13z"/>
<path d="M13119 16733 c-13 -16 -12 -17 4 -4 9 7 17 15 17 17 0 8 -8 3 -21
-13z"/>
<path d="M10896 16722 c-3 -5 16 -29 42 -53 l47 -44 -43 46 c-23 25 -39 48
-36 52 4 4 5 7 1 7 -3 0 -8 -4 -11 -8z"/>
<path d="M11149 16705 c5 -11 17 -29 26 -40 l16 -20 -10 20 c-5 11 -17 29 -26
40 l-16 20 10 -20z"/>
<path d="M10973 16662 c15 -16 24 -32 20 -37 -5 -4 -2 -5 5 -1 11 6 7 15 -14
37 -15 16 -30 29 -33 29 -2 0 7 -13 22 -28z"/>
<path d="M10900 16626 c0 -2 8 -10 18 -17 15 -13 16 -12 3 4 -13 16 -21 21
-21 13z"/>
<path d="M10870 16617 c0 -2 15 -16 33 -33 l32 -29 -29 33 c-28 30 -36 37 -36
29z"/>
<path d="M11025 16580 c10 -11 20 -20 23 -20 3 0 -3 9 -13 20 -10 11 -20 20
-23 20 -3 0 3 -9 13 -20z"/>
<path d="M11133 16585 c0 -8 4 -12 9 -9 5 3 6 10 3 15 -9 13 -12 11 -12 -6z"/>
<path d="M14490 16596 c0 -2 8 -10 18 -17 15 -13 16 -12 3 4 -13 16 -21 21
-21 13z"/>
<path d="M10985 16570 c5 -8 10 -21 10 -29 0 -8 7 -16 15 -18 12 -4 13 -3 1 5
-7 5 -11 14 -7 20 3 5 -2 16 -11 23 -15 12 -16 12 -8 -1z"/>
<path d="M11170 16535 c13 -14 26 -25 28 -25 3 0 -5 11 -18 25 -13 14 -26 25
-28 25 -3 0 5 -11 18 -25z"/>
<path d="M11080 16515 c19 -19 36 -35 39 -35 3 0 -10 16 -29 35 -19 19 -36 35
-39 35 -3 0 10 -16 29 -35z"/>
<path d="M14543 16525 c0 -8 2 -13 5 -10 2 2 13 -6 24 -18 16 -18 16 -16 -2
11 -24 36 -27 38 -27 17z"/>
<path d="M13598 16513 c7 -3 16 -2 19 1 4 3 -2 6 -13 5 -11 0 -14 -3 -6 -6z"/>
<path d="M13650 16489 c14 -11 19 -17 11 -13 -9 5 -12 3 -7 -5 4 -6 11 -9 16
-6 5 3 24 -4 44 -16 19 -11 43 -19 53 -17 25 5 -86 78 -118 78 l-24 0 25 -21z"/>
<path d="M11067 16438 c12 -13 38 -50 58 -83 20 -33 34 -52 31 -41 -10 30 -89
146 -100 146 -5 0 0 -10 11 -22z"/>
<path d="M11150 16440 c6 -11 13 -20 16 -20 2 0 0 9 -6 20 -6 11 -13 20 -16
20 -2 0 0 -9 6 -20z"/>
<path d="M13798 16443 c7 -3 16 -2 19 1 4 3 -2 6 -13 5 -11 0 -14 -3 -6 -6z"/>
<path d="M12482 16360 c-12 -23 -22 -52 -22 -63 0 -14 10 -2 25 32 31 66 28
89 -3 31z"/>
<path d="M11215 16320 c10 -11 20 -20 23 -20 3 0 -3 9 -13 20 -10 11 -20 20
-23 20 -3 0 3 -9 13 -20z"/>
<path d="M12436 16290 c-4 -14 -9 -38 -11 -53 -2 -16 -6 -35 -9 -43 -3 -8 -2
-13 3 -10 12 8 34 90 29 112 -3 16 -5 15 -12 -6z"/>
<path d="M14735 16290 c10 -11 20 -20 23 -20 3 0 -3 9 -13 20 -10 11 -20 20
-23 20 -3 0 3 -9 13 -20z"/>
<path d="M12566 16288 c3 -5 10 -6 15 -3 13 9 11 12 -6 12 -8 0 -12 -4 -9 -9z"/>
<path d="M12588 16258 c9 -9 7 -18 -11 -37 l-22 -26 27 24 c21 19 25 27 17 38
-6 7 -14 13 -17 13 -3 0 -1 -5 6 -12z"/>
<path d="M12396 16214 c-4 -9 -4 -19 -1 -22 2 -3 7 3 11 12 4 9 4 19 1 22 -2
3 -7 -3 -11 -12z"/>
<path d="M11300 16172 c0 -5 15 -19 33 -32 l32 -23 -29 31 c-31 34 -36 37 -36
24z"/>
<path d="M11210 16165 c0 -5 5 -17 10 -25 5 -8 10 -10 10 -5 0 6 -5 17 -10 25
-5 8 -10 11 -10 5z"/>
<path d="M11253 16163 c4 -6 1 -14 -5 -16 -10 -4 -10 -6 0 -6 7 -1 10 -6 6
-13 -4 -6 -3 -8 4 -5 12 8 10 32 -3 44 -4 4 -5 3 -2 -4z"/>
<path d="M12509 16143 l-24 -28 28 24 c15 14 27 26 27 28 0 8 -8 1 -31 -24z"/>
<path d="M11230 16117 c0 -12 50 -107 56 -107 3 0 4 6 1 14 -3 8 4 22 15 33
19 16 21 16 15 1 -3 -9 1 -22 9 -29 8 -6 12 -14 9 -17 -3 -3 1 -12 8 -20 10
-13 9 -15 -5 -9 -18 6 -7 -7 84 -103 24 -25 32 -32 18 -15 -67 80 -89 114 -79
120 7 5 2 16 -12 31 -12 13 -19 24 -15 24 4 0 2 9 -5 21 -8 15 -14 18 -22 10
-8 -8 -20 -2 -44 21 -18 18 -33 29 -33 25z m56 -64 c-7 -7 -26 7 -26 19 0 6 6
6 15 -2 9 -7 13 -15 11 -17z"/>
<path d="M11270 16106 c0 -2 8 -10 18 -17 15 -13 16 -12 3 4 -13 16 -21 21
-21 13z"/>
<path d="M12454 16078 l-19 -23 23 19 c21 18 27 26 19 26 -2 0 -12 -10 -23
-22z"/>
<path d="M11470 16086 c0 -2 8 -10 18 -17 15 -13 16 -12 3 4 -13 16 -21 21
-21 13z"/>
<path d="M13810 16086 c0 -2 8 -10 18 -17 15 -13 16 -12 3 4 -13 16 -21 21
-21 13z"/>
<path d="M11435 16031 c8 -17 19 -33 25 -36 5 -3 1 10 -11 29 -25 43 -36 48
-14 7z"/>
<path d="M11350 16046 c0 -2 8 -10 18 -17 15 -13 16 -12 3 4 -13 16 -21 21
-21 13z"/>
<path d="M11503 16033 c-9 -3 -7 -16 9 -46 11 -23 20 -43 19 -44 0 -2 1 -3 4
-3 3 0 8 0 11 0 3 0 -5 18 -17 40 -12 22 -20 42 -18 45 3 2 21 -22 40 -54 18
-33 36 -58 38 -56 4 4 -39 80 -61 106 -7 9 -19 15 -25 12z"/>
<path d="M11485 15960 c10 -11 20 -20 23 -20 3 0 -3 9 -13 20 -10 11 -20 20
-23 20 -3 0 3 -9 13 -20z"/>
<path d="M11648 15939 c23 -25 39 -48 36 -52 -4 -4 -1 -14 7 -23 8 -10 13 -20
13 -23 -3 -10 34 -77 48 -89 11 -9 14 -7 15 8 1 11 -2 22 -8 25 -5 4 -9 11 -9
16 0 6 5 7 12 3 7 -4 2 7 -11 24 -12 18 -27 32 -32 32 -6 0 -8 4 -5 8 3 5 -21
33 -52 63 -45 43 -48 45 -14 8z m57 -59 c3 -5 1 -10 -4 -10 -6 0 -11 5 -11 10
0 6 2 10 4 10 3 0 8 -4 11 -10z m35 -50 c4 -7 6 -19 3 -26 -2 -6 0 -15 6 -19
6 -3 11 -12 11 -18 0 -7 -9 1 -19 17 -11 16 -17 36 -13 44 3 10 1 13 -6 8 -6
-3 -13 -2 -16 3 -4 5 1 8 10 7 8 -1 19 -8 24 -16z"/>
<path d="M11420 15956 c0 -2 8 -10 18 -17 15 -13 16 -12 3 4 -13 16 -21 21
-21 13z"/>
<path d="M11547 15924 c-11 -12 5 -57 38 -110 19 -30 35 -59 35 -64 0 -5 4
-12 10 -15 11 -7 2 23 -12 42 -6 7 -6 18 -2 24 5 8 3 9 -5 5 -8 -5 -11 -3 -10
5 3 18 -25 84 -40 93 -6 4 -9 12 -6 17 7 10 2 12 -8 3z"/>
<path d="M12569 15863 c-13 -16 -12 -17 4 -4 9 7 17 15 17 17 0 8 -8 3 -21
-13z"/>
<path d="M12578 15847 c-20 -16 -27 -35 -13 -36 6 -1 10 5 10 12 1 6 7 11 14
9 7 -1 10 2 7 7 -4 5 0 12 6 14 7 3 9 6 3 6 -5 0 -18 -5 -27 -12z"/>
<path d="M11415 15830 c10 -11 20 -20 23 -20 3 0 -3 9 -13 20 -10 11 -20 20
-23 20 -3 0 3 -9 13 -20z"/>
<path d="M11484 15787 c16 -20 30 -37 33 -37 7 0 -36 58 -49 66 -7 4 1 -9 16
-29z"/>
<path d="M12521 15786 c-16 -19 -11 -29 8 -17 7 5 12 14 9 21 -3 9 -8 7 -17
-4z"/>
<path d="M11540 15750 c6 -11 13 -20 16 -20 2 0 0 9 -6 20 -6 11 -13 20 -16
20 -2 0 0 -9 6 -20z"/>
<path d="M11595 15650 c10 -11 20 -20 23 -20 3 0 -3 9 -13 20 -10 11 -20 20
-23 20 -3 0 3 -9 13 -20z"/>
<path d="M12232 15646 c-28 -16 -42 -31 -22 -24 8 3 21 -1 28 -8 10 -11 9 -17
-5 -32 -20 -21 -29 -47 -13 -37 12 8 43 65 35 65 -4 0 1 7 9 16 9 8 14 20 11
25 -8 11 -14 10 -43 -5z"/>
<path d="M12169 15613 c-1 -5 -1 -12 0 -16 1 -4 -8 -3 -20 4 -12 6 -19 7 -17
2 2 -4 -9 -21 -26 -38 -16 -16 -23 -21 -15 -11 14 19 13 19 -11 3 -14 -9 -29
-16 -33 -16 -5 1 -12 -3 -15 -7 -4 -4 -1 -4 6 0 7 4 12 2 12 -6 0 -10 3 -9 11
2 9 13 10 13 6 0 -2 -8 -14 -14 -26 -14 -12 1 -19 -1 -16 -4 2 -3 0 -11 -6
-19 -6 -7 -8 -13 -4 -13 4 0 2 -7 -5 -15 -7 -8 -9 -15 -5 -15 4 0 16 11 27 25
11 14 24 22 30 19 5 -4 0 -17 -14 -32 l-23 -25 23 15 c13 9 31 14 41 11 13 -3
20 3 25 21 3 14 11 26 17 26 8 0 8 -4 1 -12 -6 -7 -11 -17 -13 -23 -7 -34 -49
-63 -49 -34 0 5 -4 8 -10 4 -5 -3 -8 -11 -6 -18 1 -7 1 -9 -1 -4 -3 4 -12 7
-20 7 -9 0 -14 -3 -10 -6 7 -7 -53 -60 -64 -57 -4 1 -6 -5 -5 -15 2 -9 11 -19
21 -20 10 -3 15 0 11 7 -4 6 -1 9 7 5 13 -5 122 53 161 85 10 9 27 33 37 53
20 38 26 64 9 38 -5 -8 -12 -11 -16 -7 -4 3 -2 13 5 20 9 12 7 13 -14 9 -14
-2 -28 -8 -31 -13 -3 -5 -10 -9 -17 -9 -6 0 -1 7 11 16 12 8 19 20 16 26 -4 6
-2 8 3 5 6 -4 23 3 39 15 15 13 24 16 20 8 -7 -12 -6 -13 4 -3 8 7 12 14 9 16
-10 9 -59 17 -60 10z m18 -25 c-3 -8 -6 -5 -6 6 -1 11 2 17 5 13 3 -3 4 -12 1
-19z m-42 -8 c-3 -5 -12 -10 -18 -10 -7 0 -6 4 3 10 19 12 23 12 15 0z m-38
-62 c-2 -12 -9 -24 -16 -26 -9 -3 -9 2 0 22 15 32 20 33 16 4z"/>
<path d="M11599 15564 c5 -11 16 -26 23 -32 11 -9 14 -5 15 16 0 18 -1 20 -4
8 -5 -18 -6 -18 -25 5 -15 19 -17 20 -9 3z"/>
<path d="M11580 15552 c0 -5 7 -15 15 -22 8 -7 12 -17 8 -23 -3 -6 -1 -7 5 -3
7 4 12 0 13 -11 0 -10 3 -13 6 -5 2 6 -7 26 -21 43 -14 17 -26 26 -26 21z"/>
<path d="M11670 15551 c0 -6 4 -13 10 -16 6 -3 7 1 4 9 -7 18 -14 21 -14 7z"/>
<path d="M12245 15551 c-3 -5 -2 -12 3 -15 5 -3 9 1 9 9 0 17 -3 19 -12 6z"/>
<path d="M11785 15530 c10 -11 20 -20 23 -20 3 0 -3 9 -13 20 -10 11 -20 20
-23 20 -3 0 3 -9 13 -20z"/>
<path d="M11570 15506 c0 -2 8 -10 18 -17 15 -13 16 -12 3 4 -13 16 -21 21
-21 13z"/>
<path d="M11648 15489 c17 -19 15 -29 -5 -22 -16 6 -16 5 -4 -10 7 -9 19 -17
27 -17 20 0 12 40 -11 52 -16 9 -18 8 -7 -3z"/>
<path d="M11842 15488 c-9 -9 -7 -15 6 -25 9 -8 12 -12 6 -9 -5 2 -28 1 -49
-4 -23 -5 -44 -5 -50 0 -6 5 -26 12 -44 15 -29 5 -32 4 -22 -9 10 -11 9 -16
-4 -23 -14 -8 -12 -13 17 -35 56 -42 79 -52 92 -38 8 9 8 14 -2 17 -6 3 -9 10
-6 15 4 7 2 8 -5 4 -6 -4 -9 -12 -6 -17 6 -9 -18 -13 -27 -4 -3 3 6 18 21 34
23 25 27 27 38 12 6 -9 15 -13 19 -8 4 4 2 7 -4 7 -7 0 -12 5 -12 10 0 6 8 5
20 -2 14 -9 16 -15 7 -21 -9 -6 -9 -8 1 -5 8 2 12 6 11 8 -1 3 3 15 9 27 9 15
9 24 1 28 -6 4 -8 13 -5 21 7 17 4 18 -12 2z m-84 -69 c-3 -8 -7 -3 -11 10 -4
17 -3 21 5 13 5 -5 8 -16 6 -23z m-23 -10 c-10 -15 -25 -10 -19 6 4 8 10 12
15 9 5 -3 7 -10 4 -15z"/>
<path d="M11788 15463 c7 -3 16 -2 19 1 4 3 -2 6 -13 5 -11 0 -14 -3 -6 -6z"/>
<path d="M11970 15435 c-7 -8 -17 -12 -23 -8 -6 3 -7 1 -3 -5 5 -8 0 -12 -13
-12 -21 0 -30 -19 -11 -21 30 -4 40 -3 38 2 -2 4 6 16 16 28 11 12 17 23 14
26 -3 3 -11 -1 -18 -10z"/>
<path d="M11888 15421 c-15 -17 -15 -20 -1 -25 12 -5 11 -10 -8 -26 l-24 -21
30 3 c17 1 35 -1 42 -5 10 -6 11 4 4 31 -1 1 -11 -3 -23 -9 -20 -11 -22 -11
-10 3 9 11 10 18 2 23 -7 4 -7 12 0 26 14 24 9 24 -12 0z"/>
<path d="M11995 15419 c-4 -6 -5 -12 -2 -15 2 -3 7 2 10 11 7 17 1 20 -8 4z"/>
<path d="M11807 15393 c-12 -11 7 -33 28 -33 21 0 58 29 39 31 -5 0 -21 2 -36
4 -14 2 -29 1 -31 -2z"/>
<path d="M11763 15275 c0 -8 3 -13 5 -10 3 3 12 -1 21 -7 10 -8 9 -4 -3 10
-23 26 -23 26 -23 7z"/>
<path d="M11809 15267 c7 -9 10 -17 6 -17 -5 0 -1 -8 8 -18 10 -10 14 -22 10
-27 -5 -4 -2 -5 5 -1 11 6 10 12 -4 27 -18 20 -6 27 14 7 7 -7 12 -9 12 -6 0
4 -15 17 -32 29 -22 16 -28 17 -19 6z"/>
<path d="M11885 15214 c6 -5 23 -20 40 -34 29 -24 29 -24 10 -2 -11 13 -29 28
-40 34 -11 6 -15 6 -10 2z"/>
<path d="M11863 15197 c0 -8 6 -14 14 -14 9 0 10 4 2 14 -6 7 -12 13 -14 13
-1 0 -2 -6 -2 -13z"/>
<path d="M11878 15078 c-4 -9 -4 -18 -1 -21 7 -8 33 3 33 15 0 5 -4 7 -9 4 -5
-4 -11 -1 -13 6 -3 8 -6 6 -10 -4z"/>
<path d="M13130 16255 c-7 -9 -8 -15 -2 -15 5 0 12 7 16 15 3 8 4 15 2 15 -2
0 -9 -7 -16 -15z"/>
<path d="M12915 16140 c-3 -6 1 -7 9 -4 18 7 21 14 7 14 -6 0 -13 -4 -16 -10z"/>
<path d="M13119 16083 c-13 -16 -12 -17 4 -4 9 7 17 15 17 17 0 8 -8 3 -21
-13z"/>
<path d="M13010 16050 c-9 -6 -10 -10 -3 -10 6 0 15 5 18 10 8 12 4 12 -15 0z"/>
<path d="M12903 15838 c-23 -12 -44 -27 -47 -34 -3 -7 11 -2 31 12 20 13 42
24 49 24 8 0 14 5 14 10 0 12 4 13 -47 -12z"/>
<path d="M12800 15785 c-19 -19 -30 -35 -24 -34 9 0 70 69 62 69 -2 0 -19 -16
-38 -35z"/>
<path d="M12716 15733 c-4 -5 -11 -8 -14 -8 -19 -1 -73 -42 -78 -60 -3 -11
-31 -46 -62 -77 -61 -63 -60 -69 8 -35 31 15 44 27 42 40 -2 9 1 17 6 17 5 0
28 18 52 40 44 40 48 66 7 41 -22 -14 -22 -14 -4 7 11 11 25 18 32 16 7 -3 15
2 18 10 7 17 4 20 -7 9z m-66 -63 c0 -5 -5 -10 -11 -10 -5 0 -7 5 -4 10 3 6 8
10 11 10 2 0 4 -4 4 -10z"/>
<path d="M12693 15665 c-39 -41 -68 -75 -63 -75 14 0 110 91 105 100 -3 4 2
11 11 14 12 4 15 2 10 -9 -8 -22 2 -18 15 6 8 15 8 19 0 15 -6 -4 -11 -3 -11
3 0 5 6 12 13 14 6 3 8 6 2 6 -5 0 -42 -33 -82 -74z"/>
<path d="M12686 15611 c-10 -11 -13 -22 -8 -25 5 -3 12 4 15 15 4 13 10 18 18
13 8 -4 10 -3 5 4 -9 15 -10 15 -30 -7z"/>
<path d="M5740 13006 c0 -2 8 -10 18 -17 15 -13 16 -12 3 4 -13 16 -21 21 -21
13z"/>
<path d="M7852 9128 c2 -6 15 -18 29 -27 l24 -15 -24 27 c-26 29 -35 34 -29
15z"/>
<path d="M7975 8980 c10 -11 20 -20 23 -20 3 0 -3 9 -13 20 -10 11 -20 20 -23
20 -3 0 3 -9 13 -20z"/>
<path d="M9630 7272 c0 -6 9 -28 21 -48 13 -24 18 -46 14 -63 -3 -16 -2 -21 3
-13 9 14 15 5 51 -80 11 -26 34 -68 51 -93 17 -25 28 -50 24 -57 -4 -6 -3 -9
2 -5 15 9 40 -15 78 -73 39 -59 50 -51 15 9 -28 47 -72 115 -79 121 -4 3 -17
23 -30 45 -13 22 -31 48 -40 57 -8 9 -33 56 -54 105 -40 89 -56 117 -56 95z"/>
<path d="M9895 6871 c5 -29 25 -53 25 -30 0 8 -7 24 -15 35 -14 18 -14 18 -10
-5z"/>
<path d="M9820 6730 c6 -11 13 -20 16 -20 2 0 0 9 -6 20 -6 11 -13 20 -16 20
-2 0 0 -9 6 -20z"/>
<path d="M10022 6440 c0 -14 2 -19 5 -12 2 6 2 18 0 25 -3 6 -5 1 -5 -13z"/>
<path d="M9944 6285 c8 -26 19 -52 24 -57 5 -5 2 14 -8 41 -22 67 -34 79 -16
16z"/>
<path d="M9915 6299 c-4 -6 -5 -12 -2 -15 2 -3 7 2 10 11 7 17 1 20 -8 4z"/>
<path d="M10062 6260 c0 -14 2 -19 5 -12 2 6 2 18 0 25 -3 6 -5 1 -5 -13z"/>
<path d="M10066 6178 c1 -29 10 -102 20 -163 10 -60 19 -128 20 -150 0 -22 2
-51 3 -65 2 -23 3 -24 11 -5 7 16 9 17 9 3 1 -9 4 -25 7 -35 5 -15 4 -15 -5
-3 -18 25 -13 -7 8 -51 11 -21 22 -57 26 -80 4 -22 9 -38 11 -36 5 5 -10 101
-35 227 -5 25 -15 81 -21 125 -33 232 -59 346 -54 233z m11 -30 c-3 -8 -6 -5
-6 6 -1 11 2 17 5 13 3 -3 4 -12 1 -19z m40 -320 c-3 -8 -6 -5 -6 6 -1 11 2
17 5 13 3 -3 4 -12 1 -19z"/>
<path d="M10213 6110 c0 -25 2 -35 4 -22 2 12 2 32 0 45 -2 12 -4 2 -4 -23z"/>
<path d="M10221 6034 c0 -11 3 -14 6 -6 3 7 2 16 -1 19 -3 4 -6 -2 -5 -13z"/>
<path d="M10242 5790 c0 -14 2 -19 5 -12 2 6 2 18 0 25 -3 6 -5 1 -5 -13z"/>
<path d="M10170 5564 c0 -8 5 -12 10 -9 6 3 10 10 10 16 0 5 -4 9 -10 9 -5 0
-10 -7 -10 -16z"/>
<path d="M10181 5524 c0 -11 3 -14 6 -6 3 7 2 16 -1 19 -3 4 -6 -2 -5 -13z"/>
<path d="M10281 5424 c0 -27 4 -58 9 -69 5 -12 6 5 3 45 -7 79 -13 92 -12 24z"/>
<path d="M10170 5388 c0 -2 -2 -50 -5 -107 -3 -58 -3 -102 1 -99 8 9 18 208
10 208 -3 0 -6 -1 -6 -2z"/>
<path d="M10191 4884 c0 -11 3 -14 6 -6 3 7 2 16 -1 19 -3 4 -6 -2 -5 -13z"/>
<path d="M10145 4768 c-13 -101 -15 -124 -6 -103 10 23 25 155 18 155 -2 0 -8
-24 -12 -52z"/>
<path d="M10102 4635 c0 -16 2 -22 5 -12 2 9 2 23 0 30 -3 6 -5 -1 -5 -18z"/>
<path d="M10122 4610 c0 -19 2 -27 5 -17 2 9 2 25 0 35 -3 9 -5 1 -5 -18z"/>
<path d="M10067 4623 c-13 -20 -18 -103 -8 -120 9 -15 11 -13 11 17 1 19 3 52
5 73 3 36 1 44 -8 30z"/>
<path d="M10086 4555 c-3 -9 -6 -24 -5 -33 0 -9 5 -4 10 12 9 32 6 48 -5 21z"/>
<path d="M10012 4100 c-18 -22 -38 -39 -44 -37 -6 1 -13 -5 -15 -13 -3 -9 -1
-11 4 -5 4 6 19 12 33 13 30 5 52 21 47 36 -3 6 0 19 5 29 13 26 6 21 -30 -23z
m18 -4 c0 -2 -8 -10 -17 -17 -16 -13 -17 -12 -4 4 13 16 21 21 21 13z"/>
<path d="M9735 4360 c-3 -5 2 -10 11 -10 16 0 16 -1 -1 -20 -22 -25 -43 -27
-24 -2 13 15 12 16 -3 4 -9 -8 -14 -20 -11 -29 5 -12 12 -9 36 15 16 16 26 35
23 41 -9 14 -23 14 -31 1z"/>
<path d="M10230 4205 c-7 -9 -11 -17 -9 -20 3 -2 10 5 17 15 14 24 10 26 -8 5z"/>
<path d="M10141 3907 c-13 -21 -12 -21 5 -5 10 10 16 20 13 22 -3 3 -11 -5
-18 -17z"/>
<path d="M10099 3793 c-13 -16 -12 -17 4 -4 16 13 21 21 13 21 -2 0 -10 -8
-17 -17z"/>
<path d="M9890 3855 c-11 -13 -10 -14 4 -9 9 3 16 10 16 15 0 13 -6 11 -20 -6z"/>
</g>
</svg>
